<svg width="40" height="40" viewBox="0 0 40 40" fill="none" xmlns="http://www.w3.org/2000/svg">
<path d="M10 3.33301L5 9.99967V33.333C5 34.2171 5.35119 35.0649 5.97631 35.69C6.60143 36.3152 7.44928 36.6663 8.33333 36.6663H31.6667C32.5507 36.6663 33.3986 36.3152 34.0237 35.69C34.6488 35.0649 35 34.2171 35 33.333V9.99967L30 3.33301H10Z" stroke="inherit"   stroke-linecap="round" stroke-linejoin="round"/>
<path d="M5 10H35" stroke="inherit"   stroke-linecap="round" stroke-linejoin="round"/>
<path d="M26.6673 16.667C26.6673 18.4351 25.9649 20.1308 24.7147 21.381C23.4645 22.6313 21.7688 23.3337 20.0007 23.3337C18.2325 23.3337 16.5368 22.6313 15.2866 21.381C14.0364 20.1308 13.334 18.4351 13.334 16.667" stroke="inherit"   stroke-linecap="round" stroke-linejoin="round"/>
</svg>
