<svg width="41" height="40" viewBox="0 0 41 40" fill="none" xmlns="http://www.w3.org/2000/svg">
<path d="M33.7217 11.6665H7.05501C5.21406 11.6665 3.72168 13.1589 3.72168 14.9998V31.6665C3.72168 33.5075 5.21406 34.9998 7.05501 34.9998H33.7217C35.5626 34.9998 37.055 33.5075 37.055 31.6665V14.9998C37.055 13.1589 35.5626 11.6665 33.7217 11.6665Z" stroke="inherit"   stroke-linecap="round" stroke-linejoin="round"/>
<path d="M27.055 35V8.33333C27.055 7.44928 26.7038 6.60143 26.0787 5.97631C25.4536 5.35119 24.6057 5 23.7217 5H17.055C16.171 5 15.3231 5.35119 14.698 5.97631C14.0729 6.60143 13.7217 7.44928 13.7217 8.33333V35" stroke="inherit"   stroke-linecap="round" stroke-linejoin="round"/>
</svg>
