<svg width="17" height="17" viewBox="0 0 17 17" fill="none" xmlns="http://www.w3.org/2000/svg">
<g clip-path="url(#clip0_3018_43031)">
<path d="M15.7477 13.3962C15.7477 13.7498 15.6072 14.0889 15.3572 14.339C15.1071 14.589 14.768 14.7295 14.4144 14.7295H2.41439C2.06077 14.7295 1.72163 14.589 1.47158 14.339C1.22153 14.0889 1.08105 13.7498 1.08105 13.3962V6.06283C1.08105 5.7092 1.22153 5.37006 1.47158 5.12002C1.72163 4.86997 2.06077 4.72949 2.41439 4.72949H5.08105L6.41439 2.72949H10.4144L11.7477 4.72949H14.4144C14.768 4.72949 15.1071 4.86997 15.3572 5.12002C15.6072 5.37006 15.7477 5.7092 15.7477 6.06283V13.3962Z" stroke="inherit" stroke-width="0.551203" stroke-linecap="round" stroke-linejoin="round"/>
<path d="M8.41471 12.0628C9.88747 12.0628 11.0814 10.8689 11.0814 9.39616C11.0814 7.9234 9.88747 6.72949 8.41471 6.72949C6.94195 6.72949 5.74805 7.9234 5.74805 9.39616C5.74805 10.8689 6.94195 12.0628 8.41471 12.0628Z" stroke="inherit" stroke-width="0.551203" stroke-linecap="round" stroke-linejoin="round"/>
</g>
<defs>
<clipPath id="clip0_3018_43031">
<rect width="16" height="16" fill="white" transform="translate(0.414551 0.729492)"/>
</clipPath>
</defs>
</svg>
