<svg width="6" height="6" viewBox="0 0 6 6" fill="none" xmlns="http://www.w3.org/2000/svg">
<path d="M2.71763 4.1775L0.919129 2.12175C0.706879 1.87988 0.879379 1.5 1.2015 1.5H4.7985C4.8706 1.49994 4.94118 1.52066 5.0018 1.55968C5.06242 1.5987 5.1105 1.65436 5.1403 1.72001C5.17009 1.78566 5.18034 1.8585 5.1698 1.92982C5.15926 2.00113 5.12839 2.0679 5.08088 2.12213L3.28238 4.17713C3.24718 4.2174 3.20377 4.24969 3.15507 4.27181C3.10637 4.29392 3.0535 4.30537 3 4.30537C2.94651 4.30537 2.89364 4.29392 2.84494 4.27181C2.79624 4.24969 2.75283 4.2174 2.71763 4.17713V4.1775Z"/>
</svg>
