<svg width="20" height="20" viewBox="0 0 20 20" fill="none" xmlns="http://www.w3.org/2000/svg">
<path d="M18.7219 10.6781L19.8656 4.41563C19.8794 4.33479 19.8757 4.25194 19.8547 4.17268C19.8336 4.09342 19.7958 4.01961 19.7438 3.95625C19.6923 3.89129 19.6267 3.83894 19.552 3.80319C19.4773 3.76745 19.3953 3.74925 19.3125 3.75H4.03125L3.54375 1.07813C3.49079 0.775998 3.33295 0.502237 3.09801 0.305029C2.86308 0.107821 2.56611 -0.000193081 2.25937 2.59103e-07H0.5625C0.413316 2.59103e-07 0.270242 0.0592634 0.164752 0.164753C0.0592632 0.270242 0 0.413316 0 0.5625C0 0.711685 0.0592632 0.854759 0.164752 0.960248C0.270242 1.06574 0.413316 1.125 0.5625 1.125H2.25937C2.30163 1.12626 2.34221 1.14177 2.37455 1.169C2.40688 1.19622 2.42906 1.23358 2.4375 1.275L5.03438 15.5438C4.71325 15.8022 4.46289 16.1378 4.30672 16.5193C4.15056 16.9007 4.09367 17.3156 4.1414 17.725C4.18912 18.1344 4.33989 18.525 4.57961 18.8603C4.81933 19.1957 5.14017 19.4647 5.51212 19.6423C5.88408 19.8199 6.295 19.9003 6.70647 19.876C7.11795 19.8517 7.51652 19.7234 7.86494 19.5031C8.21335 19.2829 8.50023 18.9779 8.69873 18.6166C8.89723 18.2554 9.00089 17.8497 9 17.4375C9.00188 16.972 8.86833 16.516 8.61563 16.125H14.2594C14.0067 16.516 13.8731 16.972 13.875 17.4375C13.875 17.9196 14.018 18.3909 14.2858 18.7917C14.5536 19.1925 14.9343 19.505 15.3797 19.6895C15.8251 19.8739 16.3152 19.9222 16.788 19.8282C17.2609 19.7341 17.6952 19.502 18.0361 19.1611C18.377 18.8202 18.6091 18.3859 18.7032 17.913C18.7972 17.4402 18.7489 16.9501 18.5645 16.5047C18.38 16.0593 18.0675 15.6786 17.6667 15.4108C17.2659 15.143 16.7946 15 16.3125 15H6.075L5.59687 12.375H16.6969C17.1796 12.3739 17.6467 12.2034 18.0167 11.8934C18.3868 11.5833 18.6363 11.1532 18.7219 10.6781ZM7.875 17.4375C7.875 17.6971 7.79802 17.9508 7.6538 18.1667C7.50958 18.3825 7.3046 18.5508 7.06477 18.6501C6.82494 18.7494 6.56104 18.7754 6.30644 18.7248C6.05184 18.6741 5.81798 18.5491 5.63442 18.3656C5.45087 18.182 5.32586 17.9482 5.27522 17.6936C5.22458 17.439 5.25057 17.1751 5.34991 16.9352C5.44925 16.6954 5.61747 16.4904 5.83331 16.3462C6.04915 16.202 6.30291 16.125 6.5625 16.125C6.9106 16.125 7.24444 16.2633 7.49058 16.5094C7.73672 16.7556 7.875 17.0894 7.875 17.4375ZM17.625 17.4375C17.625 17.6971 17.548 17.9508 17.4038 18.1667C17.2596 18.3825 17.0546 18.5508 16.8148 18.6501C16.5749 18.7494 16.311 18.7754 16.0564 18.7248C15.8018 18.6741 15.568 18.5491 15.3844 18.3656C15.2009 18.182 15.0759 17.9482 15.0252 17.6936C14.9746 17.439 15.0006 17.1751 15.0999 16.9352C15.1992 16.6954 15.3675 16.4904 15.5833 16.3462C15.7992 16.202 16.0529 16.125 16.3125 16.125C16.6606 16.125 16.9944 16.2633 17.2406 16.5094C17.4867 16.7556 17.625 17.0894 17.625 17.4375ZM4.2375 4.875H18.6375L17.6156 10.4813C17.5762 10.6965 17.4628 10.8911 17.2951 11.0315C17.1273 11.1719 16.9157 11.2492 16.6969 11.25H5.4L4.2375 4.875Z" style="stroke-width: 0.8;"/>
</svg>
