<svg width="12" height="13" viewBox="0 0 12 13" fill="none" xmlns="http://www.w3.org/2000/svg">
<path d="M6 4.16667V6.5L7.75 8.25L6 4.16667ZM11.25 6.5C11.25 7.18944 11.1142 7.87213 10.8504 8.50909C10.5865 9.14605 10.1998 9.7248 9.71231 10.2123C9.2248 10.6998 8.64605 11.0865 8.00909 11.3504C7.37213 11.6142 6.68944 11.75 6 11.75C5.31056 11.75 4.62787 11.6142 3.99091 11.3504C3.35395 11.0865 2.7752 10.6998 2.28769 10.2123C1.80018 9.7248 1.41347 9.14605 1.14963 8.50909C0.885795 7.87213 0.75 7.18944 0.75 6.5C0.75 5.10761 1.30312 3.77226 2.28769 2.78769C3.27226 1.80312 4.60761 1.25 6 1.25C7.39239 1.25 8.72774 1.80312 9.71231 2.78769C10.6969 3.77226 11.25 5.10761 11.25 6.5Z" stroke="black"   stroke-linecap="round" stroke-linejoin="round"/>
</svg>
