<svg width="40" height="39" viewBox="0 0 40 39" fill="none" xmlns="http://www.w3.org/2000/svg">
<rect x="0.555542" width="39" height="39" fill="white"/>
<path d="M24.1195 9.50618L21.4843 9.50195C18.5237 9.50195 16.6105 11.4649 16.6105 14.5031V16.8089H13.9609C13.7319 16.8089 13.5465 16.9945 13.5465 17.2235V20.5644C13.5465 20.7933 13.7321 20.9787 13.9609 20.9787H16.6105V29.4089C16.6105 29.6379 16.7959 29.8233 17.0248 29.8233H20.4818C20.7108 29.8233 20.8962 29.6376 20.8962 29.4089V20.9787H23.9942C24.2231 20.9787 24.4085 20.7933 24.4085 20.5644L24.4098 17.2235C24.4098 17.1135 24.366 17.0083 24.2884 16.9305C24.2108 16.8527 24.1051 16.8089 23.9952 16.8089H20.8962V14.8542C20.8962 13.9147 21.12 13.4378 22.3439 13.4378L24.1191 13.4371C24.3478 13.4371 24.5332 13.2515 24.5332 13.0228V9.92054C24.5332 9.69201 24.348 9.5066 24.1195 9.50618Z" fill="#4787F3"/>
</svg>
