<svg width="30" height="29" viewBox="0 0 30 29" fill="none" xmlns="http://www.w3.org/2000/svg">
<path d="M17.4032 2.48438H7.7908C7.15345 2.48438 6.54222 2.73756 6.09155 3.18823C5.64088 3.6389 5.3877 4.25013 5.3877 4.88748V24.1123C5.3877 24.7496 5.64088 25.3609 6.09155 25.8115C6.54222 26.2622 7.15345 26.5154 7.7908 26.5154H22.2094C22.8467 26.5154 23.458 26.2622 23.9086 25.8115C24.3593 25.3609 24.6125 24.7496 24.6125 24.1123V9.69368L17.4032 2.48438Z" stroke="white"   stroke-linecap="round" stroke-linejoin="round"/>
<path d="M17.4033 2.48438V9.69368H24.6126" stroke="white"   stroke-linecap="round" stroke-linejoin="round"/>
<path d="M19.8063 15.7031H10.1938" stroke="white"   stroke-linecap="round" stroke-linejoin="round"/>
<path d="M19.8063 20.5078H10.1938" stroke="white"   stroke-linecap="round" stroke-linejoin="round"/>
<path d="M12.5969 10.8945H11.3954H10.1938" stroke="white"   stroke-linecap="round" stroke-linejoin="round"/>
</svg>
