<svg width="50" height="50" viewBox="0 0 50 50" fill="none" xmlns="http://www.w3.org/2000/svg">
<path d="M18.7501 44.4444C20.6677 44.4444 22.2223 42.8899 22.2223 40.9722C22.2223 39.0546 20.6677 37.5 18.7501 37.5C16.8324 37.5 15.2778 39.0546 15.2778 40.9722C15.2778 42.8899 16.8324 44.4444 18.7501 44.4444Z" fill="white"/>
<path d="M36.8056 44.4444C38.7233 44.4444 40.2778 42.8899 40.2778 40.9722C40.2778 39.0546 38.7233 37.5 36.8056 37.5C34.8879 37.5 33.3334 39.0546 33.3334 40.9722C33.3334 42.8899 34.8879 44.4444 36.8056 44.4444Z" fill="white"/>
<path d="M45.9722 8.87502C45.8428 8.70695 45.6767 8.57074 45.4865 8.47684C45.2963 8.38295 45.0871 8.33387 44.875 8.33336H12.7917L12.1667 6.34724C12.098 6.13399 11.9788 5.94051 11.8192 5.78331C11.6596 5.62611 11.4643 5.50986 11.25 5.44447L5.55557 3.69447C5.38047 3.64066 5.19649 3.62187 5.01413 3.63917C4.83178 3.65646 4.65461 3.70951 4.49275 3.79527C4.16587 3.96848 3.92118 4.26446 3.81251 4.61808C3.70385 4.9717 3.74011 5.35401 3.91332 5.68089C4.08653 6.00778 4.3825 6.25247 4.73612 6.36113L9.72223 7.88891L16.0833 27.9861L13.8195 29.8472L13.6389 30.0278C13.079 30.6761 12.7618 31.4988 12.7416 32.3551C12.7213 33.2114 12.9992 34.0482 13.5278 34.7222C13.9063 35.1826 14.3874 35.548 14.9324 35.7892C15.4775 36.0303 16.0714 36.1406 16.6667 36.1111H39.8472C40.2156 36.1111 40.5689 35.9648 40.8293 35.7043C41.0898 35.4439 41.2361 35.0906 41.2361 34.7222C41.2361 34.3539 41.0898 34.0006 40.8293 33.7401C40.5689 33.4797 40.2156 33.3334 39.8472 33.3334H16.4445C16.2845 33.3279 16.1287 33.2813 15.992 33.198C15.8554 33.1147 15.7425 32.9976 15.6643 32.858C15.5861 32.7184 15.5453 32.561 15.5457 32.4009C15.5461 32.2409 15.5878 32.0837 15.6667 31.9445L19.0139 29.1667H40.4445C40.7617 29.1759 41.0726 29.0762 41.3253 28.8842C41.578 28.6921 41.7573 28.4193 41.8333 28.1111L46.2778 10.0556C46.32 9.84852 46.3145 9.63455 46.2615 9.42997C46.2086 9.22539 46.1096 9.03559 45.9722 8.87502Z" fill="white"/>
</svg>
