<!-- Uploaded to: SVG Repo, www.svgrepo.com, Transformed by: SVG Repo Mixer Tools -->
<svg height="24" width="24" version="1.1" id="Layer_1" xmlns="http://www.w3.org/2000/svg"
     xmlns:xlink="http://www.w3.org/1999/xlink" viewBox="0 0 512 512" xml:space="preserve">

<g id="SVGRepo_bgCarrier"/>

    <g id="SVGRepo_tracerCarrier"/>

    <g id="SVGRepo_iconCarrier"> <g> <g> <path
            d="M420.209,0H91.791c-5.632,0-10.199,4.567-10.199,10.199v458.76c0,5.632,4.567,10.199,10.199,10.199h20.739v22.642 c0,5.632,4.567,10.199,10.199,10.199h266.542c5.632,0,10.199-4.567,10.199-10.199v-22.642h20.739 c5.632,0,10.199-4.567,10.199-10.199V10.199C430.408,4.567,425.841,0,420.209,0z M101.99,458.76V20.398h143.811V458.76H101.99z M379.072,491.602H132.928v-12.443h246.143V491.602z M410.01,458.76H266.199V20.398H410.01V458.76z"/> </g> </g>
        <g> <g> <path
                d="M288.841,282.515c-5.632,0-10.199,4.567-10.199,10.199v4.852c0,5.632,4.567,10.199,10.199,10.199 c5.632,0,10.199-4.567,10.199-10.199v-4.852C299.041,287.082,294.473,282.515,288.841,282.515z"/> </g> </g>
        <g> <g> <path
                d="M288.841,174.472c-5.632,0-10.199,4.567-10.199,10.199v73.366c0,5.633,4.567,10.199,10.199,10.199 c5.632,0,10.199-4.567,10.199-10.199v-73.366C299.041,179.039,294.473,174.472,288.841,174.472z"/> </g> </g>
        <g> <g> <path
                d="M223.159,174.472c-5.632,0-10.199,4.567-10.199,10.199v112.894c0,5.633,4.566,10.2,10.199,10.2 c5.632,0,10.199-4.567,10.199-10.199V184.671C233.358,179.039,228.791,174.472,223.159,174.472z"/> </g> </g> </g>

</svg>
