<svg width="41" height="40" viewBox="0 0 41 40" fill="none" xmlns="http://www.w3.org/2000/svg">
<path d="M10.3884 3.3335L5.38843 10.0002V33.3335C5.38843 34.2176 5.73962 35.0654 6.36474 35.6905C6.98986 36.3156 7.83771 36.6668 8.72176 36.6668H32.0551C32.9391 36.6668 33.787 36.3156 34.4121 35.6905C35.0372 35.0654 35.3884 34.2176 35.3884 33.3335V10.0002L30.3884 3.3335H10.3884Z" stroke="inherit"   stroke-linecap="round" stroke-linejoin="round"/>
<path d="M5.38843 10H35.3884" stroke="inherit"   stroke-linecap="round" stroke-linejoin="round"/>
<path d="M27.055 16.6665C27.055 18.4346 26.3526 20.1303 25.1024 21.3805C23.8521 22.6308 22.1565 23.3332 20.3883 23.3332C18.6202 23.3332 16.9245 22.6308 15.6743 21.3805C14.4241 20.1303 13.7217 18.4346 13.7217 16.6665" stroke="inherit"   stroke-linecap="round" stroke-linejoin="round"/>
</svg>
