<svg width="40" height="39" viewBox="0 0 40 39" fill="none" xmlns="http://www.w3.org/2000/svg">
<rect x="0.555542" width="39" height="39" fill="white"/>
<path d="M14.8875 22.1231L14.1787 24.7693L11.5879 24.8241C10.8137 23.388 10.3745 21.745 10.3745 19.9989C10.3745 18.3105 10.7851 16.7184 11.513 15.3164H11.5135L13.82 15.7393L14.8304 18.0319C14.6189 18.6484 14.5037 19.3103 14.5037 19.9989C14.5038 20.7463 14.6391 21.4625 14.8875 22.1231Z" fill="#FBBB00"/>
<path d="M30.56 18.0977C30.677 18.7136 30.738 19.3497 30.738 19.9998C30.738 20.7287 30.6614 21.4397 30.5154 22.1256C30.0198 24.4596 28.7246 26.4977 26.9305 27.9399L26.93 27.9393L24.0247 27.7911L23.6136 25.2244C24.8041 24.5262 25.7345 23.4336 26.2245 22.1256H20.78V18.0977H26.3039H30.56Z" fill="#518EF8"/>
<path d="M26.9297 27.9405L26.9302 27.941C25.1853 29.3435 22.9688 30.1826 20.556 30.1826C16.6784 30.1826 13.3073 28.0154 11.5875 24.826L14.8871 22.125C15.7469 24.4199 17.9607 26.0534 20.556 26.0534C21.6714 26.0534 22.7165 25.7519 23.6132 25.2255L26.9297 27.9405Z" fill="#28B446"/>
<path d="M27.0553 12.1624L23.7569 14.8628C22.8287 14.2827 21.7316 13.9476 20.5563 13.9476C17.9023 13.9476 15.6472 15.6561 14.8304 18.0332L11.5135 15.3177H11.5129C13.2075 12.0505 16.6212 9.81836 20.5563 9.81836C23.0268 9.81836 25.292 10.6984 27.0553 12.1624Z" fill="#F14336"/>
</svg>
