<svg width="16" height="17" viewBox="0 0 16 17" fill="none" xmlns="http://www.w3.org/2000/svg">
<path fill-rule="evenodd" clip-rule="evenodd" d="M16 8.07925C16 10.201 15.1571 12.2358 13.6569 13.7361C12.1566 15.2364 10.1217 16.0793 8 16.0793C5.87827 16.0793 3.84344 15.2364 2.34315 13.7361C0.842855 12.2358 0 10.201 0 8.07925C0 5.95752 0.842855 3.92269 2.34315 2.4224C3.84344 0.922109 5.87827 0.0792542 8 0.0792542C10.1217 0.0792542 12.1566 0.922109 13.6569 2.4224C15.1571 3.92269 16 5.95752 16 8.07925ZM9 4.07925C9 4.34447 8.89464 4.59882 8.70711 4.78636C8.51957 4.9739 8.26522 5.07925 8 5.07925C7.73478 5.07925 7.48043 4.9739 7.29289 4.78636C7.10536 4.59882 7 4.34447 7 4.07925C7 3.81404 7.10536 3.55968 7.29289 3.37215C7.48043 3.18461 7.73478 3.07925 8 3.07925C8.26522 3.07925 8.51957 3.18461 8.70711 3.37215C8.89464 3.55968 9 3.81404 9 4.07925ZM7 7.07925C6.73478 7.07925 6.48043 7.18461 6.29289 7.37215C6.10536 7.55968 6 7.81404 6 8.07925C6 8.34447 6.10536 8.59882 6.29289 8.78636C6.48043 8.9739 6.73478 9.07925 7 9.07925V12.0793C7 12.3445 7.10536 12.5988 7.29289 12.7864C7.48043 12.9739 7.73478 13.0793 8 13.0793H9C9.26522 13.0793 9.51957 12.9739 9.70711 12.7864C9.89464 12.5988 10 12.3445 10 12.0793C10 11.814 9.89464 11.5597 9.70711 11.3721C9.51957 11.1846 9.26522 11.0793 9 11.0793V8.07925C9 7.81404 8.89464 7.55968 8.70711 7.37215C8.51957 7.18461 8.26522 7.07925 8 7.07925H7Z" fill="#0057D7"/>
</svg>
