<svg width="12" height="13" viewBox="0 0 12 13" fill="none" xmlns="http://www.w3.org/2000/svg">
<g clip-path="url(#clip0_3018_43072)">
<path d="M11.0002 8.96005V10.46C11.0008 10.5993 10.9723 10.7371 10.9165 10.8647C10.8607 10.9923 10.7789 11.1068 10.6762 11.201C10.5736 11.2951 10.4525 11.3668 10.3206 11.4114C10.1887 11.456 10.0489 11.4726 9.91021 11.46C8.37163 11.2929 6.89371 10.7671 5.59521 9.92505C4.38712 9.15738 3.36288 8.13313 2.59521 6.92505C1.7502 5.62065 1.22433 4.13555 1.06021 2.59005C1.04772 2.45178 1.06415 2.31243 1.10846 2.18086C1.15277 2.04929 1.224 1.92839 1.31759 1.82586C1.41119 1.72332 1.52511 1.6414 1.65211 1.58531C1.7791 1.52922 1.91638 1.50018 2.05521 1.50005H3.55521C3.79786 1.49766 4.03311 1.58359 4.21709 1.74181C4.40108 1.90004 4.52125 2.11977 4.55521 2.36005C4.61852 2.84008 4.73594 3.31141 4.90521 3.76505C4.97248 3.94401 4.98704 4.13851 4.94716 4.32549C4.90729 4.51247 4.81464 4.6841 4.68021 4.82005L4.04521 5.45505C4.75699 6.70682 5.79344 7.74327 7.04521 8.45505L7.68021 7.82005C7.81616 7.68562 7.98779 7.59297 8.17477 7.5531C8.36175 7.51322 8.55625 7.52778 8.73521 7.59505C9.18885 7.76432 9.66018 7.88174 10.1402 7.94505C10.3831 7.97931 10.6049 8.10165 10.7635 8.2888C10.922 8.47594 11.0063 8.71484 11.0002 8.96005Z" stroke="inherit"   stroke-linecap="round" stroke-linejoin="round"/>
</g>
<defs>
<clipPath id="clip0_3018_43072">
<rect width="12" height="12" fill="white" transform="translate(0 0.5)"/>
</clipPath>
</defs>
</svg>
