<svg width="24" height="24" viewBox="0 0 41 41" xmlns="http://www.w3.org/2000/svg">
    <path d="M33.696 12.1665H7.02938C5.18843 12.1665 3.69604 13.6589 3.69604 15.4998V32.1665C3.69604 34.0075 5.18843 35.4998 7.02938 35.4998H33.696C35.537 35.4998 37.0294 34.0075 37.0294 32.1665V15.4998C37.0294 13.6589 35.537 12.1665 33.696 12.1665Z"/>
    <path d="M27.0294 35.5V8.83333C27.0294 7.94928 26.6782 7.10143 26.0531 6.47631C25.4279 5.85119 24.5801 5.5 23.696 5.5H17.0294C16.1453 5.5 15.2975 5.85119 14.6724 6.47631C14.0472 7.10143 13.696 7.94928 13.696 8.83333V35.5"/>
</svg>
