<svg width="16" height="17" viewBox="0 0 16 17" fill="none" xmlns="http://www.w3.org/2000/svg">
<path fill-rule="evenodd" clip-rule="evenodd" d="M8 16.0793C10.1217 16.0793 12.1566 15.2364 13.6569 13.7361C15.1571 12.2358 16 10.201 16 8.07925C16 5.95752 15.1571 3.92269 13.6569 2.4224C12.1566 0.922109 10.1217 0.0792542 8 0.0792542C5.87827 0.0792542 3.84344 0.922109 2.34315 2.4224C0.842855 3.92269 0 5.95752 0 8.07925C0 10.201 0.842855 12.2358 2.34315 13.7361C3.84344 15.2364 5.87827 16.0793 8 16.0793ZM11.707 6.78625C11.8892 6.59765 11.99 6.34505 11.9877 6.08285C11.9854 5.82066 11.8802 5.56984 11.6948 5.38444C11.5094 5.19903 11.2586 5.09386 10.9964 5.09158C10.7342 5.0893 10.4816 5.1901 10.293 5.37225L7 8.66525L5.707 7.37225C5.5184 7.1901 5.2658 7.0893 5.0036 7.09158C4.7414 7.09386 4.49059 7.19903 4.30518 7.38444C4.11977 7.56984 4.0146 7.82066 4.01233 8.08285C4.01005 8.34505 4.11084 8.59765 4.293 8.78625L6.293 10.7863C6.48053 10.9737 6.73484 11.079 7 11.079C7.26516 11.079 7.51947 10.9737 7.707 10.7863L11.707 6.78625Z" fill="#198754"/>
</svg>
