<svg width="50" height="50" viewBox="0 0 50 50" fill="none" xmlns="http://www.w3.org/2000/svg">
<path d="M48.5159 23.5309L26.445 1.45036C25.5202 0.525131 24.2454 0 22.9207 0H4.99906C2.24958 0 0 2.25056 0 5.00125V22.9307C0 24.2561 0.524901 25.5314 1.47472 26.4566L23.5456 48.5371C25.4952 50.4876 28.6696 50.4876 30.6192 48.5371L48.5409 30.6077C50.4905 28.6572 50.4905 25.5064 48.5159 23.5309ZM11.2479 15.0038C9.17328 15.0038 7.49859 13.3283 7.49859 11.2528C7.49859 9.17729 9.17328 7.50188 11.2479 7.50188C13.3225 7.50188 14.9972 9.17729 14.9972 11.2528C14.9972 13.3283 13.3225 15.0038 11.2479 15.0038Z" fill="white"/>
</svg>
