<svg width="16" height="15" viewBox="0 0 16 15" fill="none" xmlns="http://www.w3.org/2000/svg">
<path fill-rule="evenodd" clip-rule="evenodd" d="M6.25685 1.17826C7.02185 -0.181736 8.97885 -0.181736 9.74285 1.17826L15.3228 11.0983C16.0728 12.4323 15.1098 14.0783 13.5808 14.0783H2.41985C0.889848 14.0783 -0.0731517 12.4323 0.676848 11.0983L6.25685 1.17826ZM8.99985 11.0793C8.99985 11.3445 8.89449 11.5988 8.70695 11.7864C8.51942 11.9739 8.26506 12.0793 7.99985 12.0793C7.73463 12.0793 7.48028 11.9739 7.29274 11.7864C7.10521 11.5988 6.99985 11.3445 6.99985 11.0793C6.99985 10.814 7.10521 10.5597 7.29274 10.3722C7.48028 10.1846 7.73463 10.0793 7.99985 10.0793C8.26506 10.0793 8.51942 10.1846 8.70695 10.3722C8.89449 10.5597 8.99985 10.814 8.99985 11.0793ZM7.99985 3.07926C7.73463 3.07926 7.48028 3.18462 7.29274 3.37216C7.10521 3.55969 6.99985 3.81405 6.99985 4.07926V7.07926C6.99985 7.34448 7.10521 7.59883 7.29274 7.78637C7.48028 7.97391 7.73463 8.07926 7.99985 8.07926C8.26506 8.07926 8.51942 7.97391 8.70695 7.78637C8.89449 7.59883 8.99985 7.34448 8.99985 7.07926V4.07926C8.99985 3.81405 8.89449 3.55969 8.70695 3.37216C8.51942 3.18462 8.26506 3.07926 7.99985 3.07926Z" fill="#FFC107"/>
</svg>
