<svg width="16" height="15" viewBox="0 0 16 15" fill="none" xmlns="http://www.w3.org/2000/svg">
<g clip-path="url(#clip0_843_286)">
<path d="M14.8163 15.0001C15.2942 15.0001 15.6818 14.6294 15.6818 14.1722V0.827871C15.6818 0.370605 15.2942 0 14.8163 0H0.865502C0.38739 0 0 0.370605 0 0.827871V14.1722C0 14.6294 0.38739 15.0001 0.865502 15.0001H14.8163Z" fill="#395185"/>
<path d="M10.8202 15V9.19122H12.8586L13.1638 6.92745H10.8202V5.48206C10.8202 4.82663 11.0105 4.37997 11.9931 4.37997L13.2464 4.37945V2.35474C13.0295 2.32714 12.2856 2.2655 11.4202 2.2655C9.6132 2.2655 8.37618 3.32048 8.37618 5.25794V6.92745H6.33252V9.19122H8.37618V15H10.8202Z" fill="white"/>
</g>
<defs>
<clipPath id="clip0_843_286">
<rect width="15.6818" height="15" fill="white"/>
</clipPath>
</defs>
</svg>
