<svg width="64" height="64" viewBox="0 0 120 120" fill="none" xmlns="http://www.w3.org/2000/svg">
    <path d="M12.5358 56.511C18.0368 56.2594 23.7731 56.0668 29.5052 55.7248C37.578 55.2255 45.6215 54.4197 53.6397 53.3662C67.3034 51.5929 80.8475 49.09 94.2056 45.8699C95.3571 45.5908 95.6471 45.7402 95.958 46.7897C97.8631 53.1736 99.9559 59.5011 102.236 65.7722C102.619 66.8257 102.539 67.0066 101.459 67.5608C85.8081 75.5718 69.15 81.7254 51.8705 85.879C44.331 87.702 36.6909 89.1389 28.9841 90.1834C23.6008 90.9106 18.1965 91.4884 12.7627 91.7557C9.74541 91.913 6.72808 92.0191 3.70654 92.1488H3.28629C2.31974 92.1488 2.0886 91.9405 2.06339 91.0521C2.01296 89.2963 1.96813 87.5379 1.92891 85.7768C1.78603 79.7114 1.47086 73.6577 0.941351 67.6119C0.659789 64.3885 0.348799 61.1652 0.050427 57.9418C0.0232116 57.7541 0.0063816 57.5651 0 57.3758C0 56.7822 0.268956 56.5031 0.907724 56.4795C1.60953 56.4481 2.31553 56.4795 3.00893 56.4795L12.5358 56.511Z"
          fill="white"/>
    <path d="M22.2893 120H13.5189C13.2499 120 12.981 120 12.712 120C11.8715 119.933 11.5731 119.638 11.6152 118.852C11.6698 117.845 11.7707 116.843 11.8379 115.841C12.0186 113.144 12.2329 110.447 12.3506 107.751C12.5145 104.075 12.6027 100.4 12.7204 96.7442C12.754 95.7143 12.9473 95.5413 14.1072 95.4431C17.1161 95.1954 20.1293 94.9713 23.134 94.6569C28.8451 94.1026 34.51 93.2535 40.1496 92.2315C53.0405 89.8965 65.6765 86.465 77.8999 81.9796C87.4391 78.4882 96.6947 74.3538 105.594 69.6089L106.644 69.0468C107.905 68.3746 108.22 68.4768 108.704 69.7426C111.486 77.0541 114.513 84.2753 117.785 91.406C118.407 92.7622 119.046 94.1105 119.68 95.4627C120.214 96.6027 120.143 96.8189 118.974 97.3849C111.081 101.223 102.941 104.6 94.6004 107.495C82.5098 111.688 70.0437 114.863 57.3501 116.985C51.0353 118.033 44.6812 118.819 38.2879 119.343C32.9551 119.74 27.6264 120.011 22.2893 120Z"
          fill="white"/>
    <path d="M20.7597 52.3326C19.6839 52.3326 18.6081 52.3326 17.5365 52.3326C16.6666 52.3326 16.4775 52.2029 16.3514 51.3774C16.0909 49.7028 15.9018 48.0125 15.6328 46.3379C14.8638 41.5854 14.0695 36.8408 13.2878 32.0922C13.2542 31.876 13.2038 31.6598 13.1786 31.4436C13.0693 30.4726 13.3047 30.2093 14.3763 30.1464C17.8265 29.9459 21.2851 29.8004 24.731 29.5371C28.8102 29.2305 32.8865 28.8688 36.9601 28.4521C40.7423 28.059 44.5665 27.6424 48.3444 27.0881C54.1774 26.2351 60.0103 25.3388 65.8097 24.3364C76.0384 22.5361 86.141 20.2168 96.1427 17.5241C97.3278 17.2057 97.5884 17.3708 97.8699 18.5226C99.4837 25.0348 101.099 31.5484 102.715 38.0633C103.018 39.2701 102.921 39.5099 101.652 39.8125C94.9577 41.4124 88.2758 43.0752 81.552 44.5611C73.8741 46.2593 66.1165 47.5919 58.3126 48.6847C53.0721 49.4158 47.8065 50.0448 42.5409 50.6226C35.3169 51.401 28.0383 51.9041 20.7597 52.3326Z"
          fill="white"/>
    <path d="M55.4302 0C64.2301 0.283028 70.7354 3.59288 75.6019 9.76445C76.8283 11.3427 77.8365 13.0598 78.6024 14.8747C78.678 15.0476 78.7579 15.2245 78.8167 15.4014C79.0857 16.2151 78.8798 16.5807 78.0056 16.8008C76.7996 17.0799 75.5851 17.3237 74.379 17.587C72.4416 18.0076 72.6308 17.815 71.8575 16.4353C68.9873 11.2503 64.5075 8.0427 58.2879 7.31941C52.7743 6.67866 48.0172 8.40042 44.2224 12.2292C41.5695 14.9033 39.9752 18.3464 39.7048 21.9858C39.6039 23.0707 39.4821 23.2358 38.36 23.3734C36.9648 23.5463 35.5612 23.6957 34.1576 23.8176C33.044 23.9158 32.7456 23.6603 32.7582 22.6383C32.8633 12.2134 40.0662 2.91282 50.9715 0.625018C52.6272 0.267302 54.3082 0.149376 55.4302 0Z"
          fill="white"/>
    <defs>
        <radialGradient id="paint0_radial_2004_109935" cx="0" cy="0" r="1" gradientUnits="userSpaceOnUse"
                        gradientTransform="translate(50.4458 64.9625) rotate(-9.73099) scale(51.1652 99.2407)">
            <stop/>
            <stop offset="1" stop-color="white"/>
        </radialGradient>
        <linearGradient id="paint1_linear_2004_109935" x1="113.062" y1="68.7914" x2="46.9774" y2="117.537"
                        gradientUnits="userSpaceOnUse">
            <stop stop-color="white"/>
            <stop offset="1" stop-color="#05344F"/>
        </linearGradient>
        <linearGradient id="paint2_linear_2004_109935" x1="37.6288" y1="26.5338" x2="67.8847" y2="-2.00632"
                        gradientUnits="userSpaceOnUse">
            <stop stop-color="white"/>
            <stop offset="1" stop-color="white"/>
        </linearGradient>
    </defs>
</svg>
