<svg width="0" height="0" class="hidden">
  <symbol fill="none" xmlns="http://www.w3.org/2000/svg" viewBox="0 0 24 24" id="arrow-down">
    <path d="M12 5V19"   stroke-linecap="round" stroke-linejoin="round"></path>
    <path d="M19 12L12 19L5 12"   stroke-linecap="round" stroke-linejoin="round"></path>
  </symbol>
  <symbol fill="none" xmlns="http://www.w3.org/2000/svg" viewBox="0 0 24 24" id="arrow-left">
    <path d="M19 12H5"   stroke-linecap="round" stroke-linejoin="round"></path>
    <path d="M12 19L5 12L12 5"   stroke-linecap="round" stroke-linejoin="round"></path>
  </symbol>
  <symbol fill="none" xmlns="http://www.w3.org/2000/svg" viewBox="0 0 24 24" id="arrow-right">
    <path d="M5 12H19"   stroke-linecap="round" stroke-linejoin="round"></path>
    <path d="M12 5L19 12L12 19"   stroke-linecap="round" stroke-linejoin="round"></path>
  </symbol>
  <symbol fill="none" xmlns="http://www.w3.org/2000/svg" viewBox="0 0 24 24" id="arrow-up">
    <path d="M12 19V5"   stroke-linecap="round" stroke-linejoin="round"></path>
    <path d="M5 12L12 5L19 12"   stroke-linecap="round" stroke-linejoin="round"></path>
  </symbol>
  <symbol fill="none" xmlns="http://www.w3.org/2000/svg" viewBox="0 0 16 16" id="ballon-chat">
    <path d="M14 7.66669C14.0023 8.5466 13.7967 9.41461 13.4 10.2C12.9296 11.1412 12.2065 11.9328 11.3116 12.4862C10.4168 13.0396 9.3855 13.3329 8.33333 13.3334C7.45342 13.3356 6.58541 13.1301 5.8 12.7334L2 14L3.26667 10.2C2.86995 9.41461 2.66437 8.5466 2.66667 7.66669C2.66707 6.61452 2.96041 5.58325 3.51381 4.68839C4.06722 3.79352 4.85884 3.0704 5.8 2.60002C6.58541 2.20331 7.45342 1.99772 8.33333 2.00002H8.66667C10.0562 2.07668 11.3687 2.66319 12.3528 3.64726C13.3368 4.63132 13.9233 5.94379 14 7.33335V7.66669Z"   stroke-linecap="round" stroke-linejoin="round"></path>
  </symbol>
  <symbol fill="none" xmlns="http://www.w3.org/2000/svg" viewBox="0 0 20 20" id="bin">
    <path d="M2.5 5H4.16667H17.5"   stroke-linecap="round" stroke-linejoin="round"></path>
    <path d="M6.6665 5.00033V3.33366C6.6665 2.89163 6.8421 2.46771 7.15466 2.15515C7.46722 1.84259 7.89114 1.66699 8.33317 1.66699H11.6665C12.1085 1.66699 12.5325 1.84259 12.845 2.15515C13.1576 2.46771 13.3332 2.89163 13.3332 3.33366V5.00033M15.8332 5.00033V16.667C15.8332 17.109 15.6576 17.5329 15.345 17.8455C15.0325 18.1581 14.6085 18.3337 14.1665 18.3337H5.83317C5.39114 18.3337 4.96722 18.1581 4.65466 17.8455C4.3421 17.5329 4.1665 17.109 4.1665 16.667V5.00033H15.8332Z"   stroke-linecap="round" stroke-linejoin="round"></path>
    <path d="M8.3335 9.16699V14.167"   stroke-linecap="round" stroke-linejoin="round"></path>
    <path d="M11.6665 9.16699V14.167"   stroke-linecap="round" stroke-linejoin="round"></path>
  </symbol>
  <symbol fill="none" xmlns="http://www.w3.org/2000/svg" viewBox="0 0 18 18" id="book-opened">
    <path d="M1.5 2.25H6C6.79565 2.25 7.55871 2.56607 8.12132 3.12868C8.68393 3.69129 9 4.45435 9 5.25V15.75C9 15.1533 8.76295 14.581 8.34099 14.159C7.91903 13.7371 7.34674 13.5 6.75 13.5H1.5V2.25Z"   stroke-linecap="round" stroke-linejoin="round"></path>
    <path d="M16.5 2.25H12C11.2044 2.25 10.4413 2.56607 9.87868 3.12868C9.31607 3.69129 9 4.45435 9 5.25V15.75C9 15.1533 9.23705 14.581 9.65901 14.159C10.081 13.7371 10.6533 13.5 11.25 13.5H16.5V2.25Z"   stroke-linecap="round" stroke-linejoin="round"></path>
  </symbol>
  <symbol fill="none" xmlns="http://www.w3.org/2000/svg" viewBox="0 0 41 40" id="briefcase">
    <path d="M33.7217 11.6665H7.05501C5.21406 11.6665 3.72168 13.1589 3.72168 14.9998V31.6665C3.72168 33.5075 5.21406 34.9998 7.05501 34.9998H33.7217C35.5626 34.9998 37.055 33.5075 37.055 31.6665V14.9998C37.055 13.1589 35.5626 11.6665 33.7217 11.6665Z"   stroke-linecap="round" stroke-linejoin="round"></path>
    <path d="M27.055 35V8.33333C27.055 7.44928 26.7038 6.60143 26.0787 5.97631C25.4536 5.35119 24.6057 5 23.7217 5H17.055C16.171 5 15.3231 5.35119 14.698 5.97631C14.0729 6.60143 13.7217 7.44928 13.7217 8.33333V35"   stroke-linecap="round" stroke-linejoin="round"></path>
  </symbol>
  <symbol fill="none" xmlns="http://www.w3.org/2000/svg" viewBox="0 0 18 18" id="calendar">
    <path d="M14.25 3H3.75C2.92157 3 2.25 3.67157 2.25 4.5V15C2.25 15.8284 2.92157 16.5 3.75 16.5H14.25C15.0784 16.5 15.75 15.8284 15.75 15V4.5C15.75 3.67157 15.0784 3 14.25 3Z"   stroke-linecap="round" stroke-linejoin="round"></path>
    <path d="M12 1.5V4.5"   stroke-linecap="round" stroke-linejoin="round"></path>
    <path d="M6 1.5V4.5"   stroke-linecap="round" stroke-linejoin="round"></path>
    <path d="M2.25 7.5H15.75"   stroke-linecap="round" stroke-linejoin="round"></path>
  </symbol>
  <symbol fill="none" xmlns="http://www.w3.org/2000/svg" viewBox="0 0 17 17" id="camera">
    <g clip-path="url(#clip0_3018_43031)">
      <path d="M15.7477 13.3962C15.7477 13.7498 15.6072 14.0889 15.3572 14.339C15.1071 14.589 14.768 14.7295 14.4144 14.7295H2.41439C2.06077 14.7295 1.72163 14.589 1.47158 14.339C1.22153 14.0889 1.08105 13.7498 1.08105 13.3962V6.06283C1.08105 5.7092 1.22153 5.37006 1.47158 5.12002C1.72163 4.86997 2.06077 4.72949 2.41439 4.72949H5.08105L6.41439 2.72949H10.4144L11.7477 4.72949H14.4144C14.768 4.72949 15.1071 4.86997 15.3572 5.12002C15.6072 5.37006 15.7477 5.7092 15.7477 6.06283V13.3962Z" stroke-width="0.551203" stroke-linecap="round" stroke-linejoin="round"></path>
      <path d="M8.41471 12.0628C9.88747 12.0628 11.0814 10.8689 11.0814 9.39616C11.0814 7.9234 9.88747 6.72949 8.41471 6.72949C6.94195 6.72949 5.74805 7.9234 5.74805 9.39616C5.74805 10.8689 6.94195 12.0628 8.41471 12.0628Z" stroke-width="0.551203" stroke-linecap="round" stroke-linejoin="round"></path>
    </g>
    <defs>
      <clipPath id="clip0_3018_43031">
        <rect width="16" height="16" transform="translate(0.414551 0.729492)"></rect>
      </clipPath>
    </defs>
  </symbol>
  <symbol fill="none" xmlns="http://www.w3.org/2000/svg" viewBox="0 0 11 6" id="caret-down">
    <path d="M10.5039 1.2L5.90367 5.43529C5.75033 5.57647 5.59699 5.64706 5.36697 5.64706C5.13696 5.64706 4.98362 5.57647 4.83028 5.43529L0.230013 1.2C-0.076671 0.917647 -0.076671 0.494118 0.230013 0.211765C0.536697 -0.0705882 0.996724 -0.0705882 1.30341 0.211765L5.36697 3.95294L9.43054 0.211765C9.73722 -0.0705882 10.1972 -0.0705882 10.5039 0.211765C10.8106 0.494118 10.8106 0.917647 10.5039 1.2Z"></path>
  </symbol>
  <symbol fill="none" xmlns="http://www.w3.org/2000/svg" viewBox="0 0 11 6" id="caret-up">
    <path d="M0.233373 4.44844L4.83364 0.213143C4.98698 0.0719671 5.14032 0.00137854 5.37033 0.00137854C5.60035 0.00137854 5.75369 0.0719671 5.90703 0.213143L10.5073 4.44844C10.814 4.73079 10.814 5.15432 10.5073 5.43667C10.2006 5.71903 9.74058 5.71903 9.4339 5.43667L5.37033 1.6955L1.30677 5.43667C1.00008 5.71903 0.540057 5.71903 0.233373 5.43667C-0.0733109 5.15432 -0.0733109 4.73079 0.233373 4.44844Z"></path>
  </symbol>
  <symbol fill="none" xmlns="http://www.w3.org/2000/svg" viewBox="0 0 12 12" id="check-circle">
    <g clip-path="url(#clip0_3018_43058)">
      <path d="M6 11C8.76142 11 11 8.76142 11 6C11 3.23858 8.76142 1 6 1C3.23858 1 1 3.23858 1 6C1 8.76142 3.23858 11 6 11Z"   stroke-linecap="round" stroke-linejoin="round"></path>
    </g>
    <path d="M8 4.5L5.25 7.25L4 6"   stroke-linecap="round" stroke-linejoin="round"></path>
    <defs>
      <clipPath id="clip0_3018_43058">
        <rect width="12" height="12"></rect>
      </clipPath>
    </defs>
  </symbol>
  <symbol fill="none" xmlns="http://www.w3.org/2000/svg" viewBox="0 0 12 13" id="clock">
    <path d="M6 4.16667V6.5L7.75 8.25L6 4.16667ZM11.25 6.5C11.25 7.18944 11.1142 7.87213 10.8504 8.50909C10.5865 9.14605 10.1998 9.7248 9.71231 10.2123C9.2248 10.6998 8.64605 11.0865 8.00909 11.3504C7.37213 11.6142 6.68944 11.75 6 11.75C5.31056 11.75 4.62787 11.6142 3.99091 11.3504C3.35395 11.0865 2.7752 10.6998 2.28769 10.2123C1.80018 9.7248 1.41347 9.14605 1.14963 8.50909C0.885795 7.87213 0.75 7.18944 0.75 6.5C0.75 5.10761 1.30312 3.77226 2.28769 2.78769C3.27226 1.80312 4.60761 1.25 6 1.25C7.39239 1.25 8.72774 1.80312 9.71231 2.78769C10.6969 3.77226 11.25 5.10761 11.25 6.5Z"   stroke-linecap="round" stroke-linejoin="round"></path>
  </symbol>
  <symbol fill="none" xmlns="http://www.w3.org/2000/svg" viewBox="0 0 16 16" id="entry">
    <path d="M10 2H12.6667C13.0203 2 13.3594 2.14048 13.6095 2.39052C13.8595 2.64057 14 2.97971 14 3.33333V12.6667C14 13.0203 13.8595 13.3594 13.6095 13.6095C13.3594 13.8595 13.0203 14 12.6667 14H10" stroke-linecap="round" stroke-linejoin="round"></path>
    <path d="M6.66602 11.3337L9.99935 8.00033L6.66602 4.66699" stroke-linecap="round" stroke-linejoin="round"></path>
    <path d="M10 8H2" stroke-linecap="round" stroke-linejoin="round"></path>
  </symbol>
  <symbol fill="none" xmlns="http://www.w3.org/2000/svg" viewBox="0 0 16 17" id="error">
    <path fill-rule="evenodd" clip-rule="evenodd" d="M16 8.07925C16 10.201 15.1571 12.2358 13.6569 13.7361C12.1566 15.2364 10.1217 16.0793 8 16.0793C5.87827 16.0793 3.84344 15.2364 2.34315 13.7361C0.842855 12.2358 0 10.201 0 8.07925C0 5.95752 0.842855 3.92269 2.34315 2.4224C3.84344 0.922109 5.87827 0.0792542 8 0.0792542C10.1217 0.0792542 12.1566 0.922109 13.6569 2.4224C15.1571 3.92269 16 5.95752 16 8.07925ZM9 12.0793C9 12.3445 8.89464 12.5988 8.70711 12.7864C8.51957 12.9739 8.26522 13.0793 8 13.0793C7.73478 13.0793 7.48043 12.9739 7.29289 12.7864C7.10536 12.5988 7 12.3445 7 12.0793C7 11.814 7.10536 11.5597 7.29289 11.3721C7.48043 11.1846 7.73478 11.0793 8 11.0793C8.26522 11.0793 8.51957 11.1846 8.70711 11.3721C8.89464 11.5597 9 11.814 9 12.0793ZM8 3.07925C7.73478 3.07925 7.48043 3.18461 7.29289 3.37215C7.10536 3.55968 7 3.81404 7 4.07925V8.07925C7 8.34447 7.10536 8.59882 7.29289 8.78636C7.48043 8.9739 7.73478 9.07925 8 9.07925C8.26522 9.07925 8.51957 8.9739 8.70711 8.78636C8.89464 8.59882 9 8.34447 9 8.07925V4.07925C9 3.81404 8.89464 3.55968 8.70711 3.37215C8.51957 3.18461 8.26522 3.07925 8 3.07925Z"></path>
  </symbol>
  <symbol fill="none" xmlns="http://www.w3.org/2000/svg" viewBox="0 0 22 13" id="eye-closed">
    <path d="M8.34203 12.7814L6.41103 12.2634L7.19803 9.32438C6.01999 8.8899 4.92514 8.25674 3.96103 7.45237L1.80803 9.60637L0.393025 8.19138L2.54703 6.03837C1.3311 4.58213 0.514113 2.83514 0.176025 0.968375L2.14403 0.609375C2.90303 4.81138 6.57903 7.99937 11 7.99937C15.42 7.99937 19.097 4.81138 19.856 0.609375L21.824 0.967375C21.4864 2.83439 20.6697 4.58174 19.454 6.03837L21.607 8.19138L20.192 9.60637L18.039 7.45237C17.0749 8.25674 15.9801 8.8899 14.802 9.32438L15.589 12.2644L13.658 12.7814L12.87 9.84138C11.6324 10.0535 10.3677 10.0535 9.13003 9.84138L8.34203 12.7814Z"></path>
  </symbol>
  <symbol fill="none" xmlns="http://www.w3.org/2000/svg" viewBox="0 0 16 16" id="eye-on">
    <path d="M0.666504 8.00033C0.666504 8.00033 3.33317 2.66699 7.99984 2.66699C12.6665 2.66699 15.3332 8.00033 15.3332 8.00033C15.3332 8.00033 12.6665 13.3337 7.99984 13.3337C3.33317 13.3337 0.666504 8.00033 0.666504 8.00033Z"   stroke-linecap="round" stroke-linejoin="round"></path>
    <path d="M8 10C9.10457 10 10 9.10457 10 8C10 6.89543 9.10457 6 8 6C6.89543 6 6 6.89543 6 8C6 9.10457 6.89543 10 8 10Z"   stroke-linecap="round" stroke-linejoin="round"></path>
  </symbol>
  <symbol fill="none" xmlns="http://www.w3.org/2000/svg" viewBox="0 0 24 24" id="eye-open">
    <path d="M1 12C1 12 5 4 12 4C19 4 23 12 23 12C23 12 19 20 12 20C5 20 1 12 1 12Z"   stroke-linecap="round" stroke-linejoin="round"></path>
    <path d="M12 15C13.6569 15 15 13.6569 15 12C15 10.3431 13.6569 9 12 9C10.3431 9 9 10.3431 9 12C9 13.6569 10.3431 15 12 15Z"   stroke-linecap="round" stroke-linejoin="round"></path>
  </symbol>
  <symbol fill="none" xmlns="http://www.w3.org/2000/svg" viewBox="0 0 40 39" id="facebook">
    <rect x="0.555542" width="39" height="39"></rect>
    <path d="M24.1195 9.50618L21.4843 9.50195C18.5237 9.50195 16.6105 11.4649 16.6105 14.5031V16.8089H13.9609C13.7319 16.8089 13.5465 16.9945 13.5465 17.2235V20.5644C13.5465 20.7933 13.7321 20.9787 13.9609 20.9787H16.6105V29.4089C16.6105 29.6379 16.7959 29.8233 17.0248 29.8233H20.4818C20.7108 29.8233 20.8962 29.6376 20.8962 29.4089V20.9787H23.9942C24.2231 20.9787 24.4085 20.7933 24.4085 20.5644L24.4098 17.2235C24.4098 17.1135 24.366 17.0083 24.2884 16.9305C24.2108 16.8527 24.1051 16.8089 23.9952 16.8089H20.8962V14.8542C20.8962 13.9147 21.12 13.4378 22.3439 13.4378L24.1191 13.4371C24.3478 13.4371 24.5332 13.2515 24.5332 13.0228V9.92054C24.5332 9.69201 24.348 9.5066 24.1195 9.50618Z"></path>
  </symbol>
  <symbol fill="none" xmlns="http://www.w3.org/2000/svg" viewBox="0 0 30 29" id="file">
    <path d="M17.4032 2.48438H7.7908C7.15345 2.48438 6.54222 2.73756 6.09155 3.18823C5.64088 3.6389 5.3877 4.25013 5.3877 4.88748V24.1123C5.3877 24.7496 5.64088 25.3609 6.09155 25.8115C6.54222 26.2622 7.15345 26.5154 7.7908 26.5154H22.2094C22.8467 26.5154 23.458 26.2622 23.9086 25.8115C24.3593 25.3609 24.6125 24.7496 24.6125 24.1123V9.69368L17.4032 2.48438Z"   stroke-linecap="round" stroke-linejoin="round"></path>
    <path d="M17.4033 2.48438V9.69368H24.6126"   stroke-linecap="round" stroke-linejoin="round"></path>
    <path d="M19.8063 15.7031H10.1938"   stroke-linecap="round" stroke-linejoin="round"></path>
    <path d="M19.8063 20.5078H10.1938"   stroke-linecap="round" stroke-linejoin="round"></path>
    <path d="M12.5969 10.8945H11.3954H10.1938"   stroke-linecap="round" stroke-linejoin="round"></path>
  </symbol>
  <symbol fill="none" xmlns="http://www.w3.org/2000/svg" viewBox="0 0 41 40" id="goods">
    <path d="M10.3884 3.3335L5.38843 10.0002V33.3335C5.38843 34.2176 5.73962 35.0654 6.36474 35.6905C6.98986 36.3156 7.83771 36.6668 8.72176 36.6668H32.0551C32.9391 36.6668 33.787 36.3156 34.4121 35.6905C35.0372 35.0654 35.3884 34.2176 35.3884 33.3335V10.0002L30.3884 3.3335H10.3884Z"   stroke-linecap="round" stroke-linejoin="round"></path>
    <path d="M5.38843 10H35.3884"   stroke-linecap="round" stroke-linejoin="round"></path>
    <path d="M27.055 16.6665C27.055 18.4346 26.3526 20.1303 25.1024 21.3805C23.8521 22.6308 22.1565 23.3332 20.3883 23.3332C18.6202 23.3332 16.9245 22.6308 15.6743 21.3805C14.4241 20.1303 13.7217 18.4346 13.7217 16.6665"   stroke-linecap="round" stroke-linejoin="round"></path>
  </symbol>
  <symbol fill="none" xmlns="http://www.w3.org/2000/svg" viewBox="0 0 16 16" id="folder">
    <path d="M14.6668 12.6667C14.6668 13.0203 14.5264 13.3594 14.2763 13.6095C14.0263 13.8595 13.6871 14 13.3335 14H2.66683C2.31321 14 1.97407 13.8595 1.72402 13.6095C1.47397 13.3594 1.3335 13.0203 1.3335 12.6667V3.33333C1.3335 2.97971 1.47397 2.64057 1.72402 2.39052C1.97407 2.14048 2.31321 2 2.66683 2H6.00016L7.3335 4H13.3335C13.6871 4 14.0263 4.14048 14.2763 4.39052C14.5264 4.64057 14.6668 4.97971 14.6668 5.33333V12.6667Z"   stroke-linecap="round" stroke-linejoin="round"></path>
    <path d="M6 9.33301H10"   stroke-linecap="round" stroke-linejoin="round"></path>
  </symbol>
  <symbol fill="none" xmlns="http://www.w3.org/2000/svg" viewBox="0 0 40 39" id="google">
    <rect x="0.555542" width="39" height="39"></rect>
    <path d="M14.8875 22.1231L14.1787 24.7693L11.5879 24.8241C10.8137 23.388 10.3745 21.745 10.3745 19.9989C10.3745 18.3105 10.7851 16.7184 11.513 15.3164H11.5135L13.82 15.7393L14.8304 18.0319C14.6189 18.6484 14.5037 19.3103 14.5037 19.9989C14.5038 20.7463 14.6391 21.4625 14.8875 22.1231Z"></path>
    <path d="M30.56 18.0977C30.677 18.7136 30.738 19.3497 30.738 19.9998C30.738 20.7287 30.6614 21.4397 30.5154 22.1256C30.0198 24.4596 28.7246 26.4977 26.9305 27.9399L26.93 27.9393L24.0247 27.7911L23.6136 25.2244C24.8041 24.5262 25.7345 23.4336 26.2245 22.1256H20.78V18.0977H26.3039H30.56Z"></path>
    <path d="M26.9297 27.9405L26.9302 27.941C25.1853 29.3435 22.9688 30.1826 20.556 30.1826C16.6784 30.1826 13.3073 28.0154 11.5875 24.826L14.8871 22.125C15.7469 24.4199 17.9607 26.0534 20.556 26.0534C21.6714 26.0534 22.7165 25.7519 23.6132 25.2255L26.9297 27.9405Z" ></path>
    <path d="M27.0553 12.1624L23.7569 14.8628C22.8287 14.2827 21.7316 13.9476 20.5563 13.9476C17.9023 13.9476 15.6472 15.6561 14.8304 18.0332L11.5135 15.3177H11.5129C13.2075 12.0505 16.6212 9.81836 20.5563 9.81836C23.0268 9.81836 25.292 10.6984 27.0553 12.1624Z"></path>
  </symbol>
  <symbol fill="none" xmlns="http://www.w3.org/2000/svg" viewBox="0 0 16 17" id="info">
    <path fill-rule="evenodd" clip-rule="evenodd" d="M16 8.07925C16 10.201 15.1571 12.2358 13.6569 13.7361C12.1566 15.2364 10.1217 16.0793 8 16.0793C5.87827 16.0793 3.84344 15.2364 2.34315 13.7361C0.842855 12.2358 0 10.201 0 8.07925C0 5.95752 0.842855 3.92269 2.34315 2.4224C3.84344 0.922109 5.87827 0.0792542 8 0.0792542C10.1217 0.0792542 12.1566 0.922109 13.6569 2.4224C15.1571 3.92269 16 5.95752 16 8.07925ZM9 4.07925C9 4.34447 8.89464 4.59882 8.70711 4.78636C8.51957 4.9739 8.26522 5.07925 8 5.07925C7.73478 5.07925 7.48043 4.9739 7.29289 4.78636C7.10536 4.59882 7 4.34447 7 4.07925C7 3.81404 7.10536 3.55968 7.29289 3.37215C7.48043 3.18461 7.73478 3.07925 8 3.07925C8.26522 3.07925 8.51957 3.18461 8.70711 3.37215C8.89464 3.55968 9 3.81404 9 4.07925ZM7 7.07925C6.73478 7.07925 6.48043 7.18461 6.29289 7.37215C6.10536 7.55968 6 7.81404 6 8.07925C6 8.34447 6.10536 8.59882 6.29289 8.78636C6.48043 8.9739 6.73478 9.07925 7 9.07925V12.0793C7 12.3445 7.10536 12.5988 7.29289 12.7864C7.48043 12.9739 7.73478 13.0793 8 13.0793H9C9.26522 13.0793 9.51957 12.9739 9.70711 12.7864C9.89464 12.5988 10 12.3445 10 12.0793C10 11.814 9.89464 11.5597 9.70711 11.3721C9.51957 11.1846 9.26522 11.0793 9 11.0793V8.07925C9 7.81404 8.89464 7.55968 8.70711 7.37215C8.51957 7.18461 8.26522 7.07925 8 7.07925H7Z"></path>
  </symbol>
  <symbol fill="none" xmlns="http://www.w3.org/2000/svg" viewBox="0 0 16 16" id="layers">
    <g clip-path="url(#clip0_3019_75365)">
      <path d="M8.00065 1.33301L1.33398 4.66634L8.00065 7.99967L14.6673 4.66634L8.00065 1.33301Z" stroke-linecap="round" stroke-linejoin="round"></path>
      <path d="M1.33398 11.333L8.00065 14.6663L14.6673 11.333" stroke-linecap="round" stroke-linejoin="round"></path>
      <path d="M1.33398 8L8.00065 11.3333L14.6673 8" stroke-linecap="round" stroke-linejoin="round"></path>
    </g>
    <defs>
      <clipPath id="clip0_3019_75365">
        <rect width="16" height="16"></rect>
      </clipPath>
    </defs>
  </symbol>
  <symbol fill="none" xmlns="http://www.w3.org/2000/svg" viewBox="0 0 18 18" id="map-pin">
    <path d="M15.75 7.5C15.75 12.75 9 17.25 9 17.25C9 17.25 2.25 12.75 2.25 7.5C2.25 5.70979 2.96116 3.9929 4.22703 2.72703C5.4929 1.46116 7.20979 0.75 9 0.75C10.7902 0.75 12.5071 1.46116 13.773 2.72703C15.0388 3.9929 15.75 5.70979 15.75 7.5Z"   stroke-linecap="round" stroke-linejoin="round"></path>
    <path d="M9 9.75C10.2426 9.75 11.25 8.74264 11.25 7.5C11.25 6.25736 10.2426 5.25 9 5.25C7.75736 5.25 6.75 6.25736 6.75 7.5C6.75 8.74264 7.75736 9.75 9 9.75Z"   stroke-linecap="round" stroke-linejoin="round"></path>
  </symbol>
  <symbol fill="none" xmlns="http://www.w3.org/2000/svg" viewBox="0 0 20 20" id="message-box">
    <path d="M19 9.5C19.0034 10.8199 18.6951 12.1219 18.1 13.3C17.3944 14.7117 16.3098 15.8992 14.9674 16.7293C13.6251 17.5594 12.0782 17.9994 10.5 18C9.18013 18.0034 7.87812 17.6951 6.7 17.1L1 19L2.9 13.3C2.30493 12.1219 1.99656 10.8199 2 9.5C2.00061 7.92176 2.44061 6.37485 3.27072 5.03255C4.10083 3.69025 5.28825 2.60557 6.7 1.9C7.87812 1.30493 9.18013 0.996557 10.5 0.999998H11C13.0843 1.11499 15.053 1.99476 16.5291 3.47086C18.0052 4.94695 18.885 6.91565 19 9V9.5Z"   stroke-linecap="round" stroke-linejoin="round"></path>
  </symbol>
  <symbol fill="none" xmlns="http://www.w3.org/2000/svg" viewBox="0 0 24 24" id="notification">
    <path d="M18 8C18 6.4087 17.3679 4.88258 16.2426 3.75736C15.1174 2.63214 13.5913 2 12 2C10.4087 2 8.88258 2.63214 7.75736 3.75736C6.63214 4.88258 6 6.4087 6 8C6 15 3 17 3 17H21C21 17 18 15 18 8Z"   stroke-linecap="round" stroke-linejoin="round"></path>
    <path d="M13.7295 21C13.5537 21.3031 13.3014 21.5547 12.9978 21.7295C12.6941 21.9044 12.3499 21.9965 11.9995 21.9965C11.6492 21.9965 11.3049 21.9044 11.0013 21.7295C10.6977 21.5547 10.4453 21.3031 10.2695 21"   stroke-linecap="round" stroke-linejoin="round"></path>
  </symbol>
  <symbol fill="none" xmlns="http://www.w3.org/2000/svg" viewBox="0 0 20 20" id="pen">
    <path d="M14.1665 2.49993C14.3854 2.28106 14.6452 2.10744 14.9312 1.98899C15.2171 1.87054 15.5236 1.80957 15.8332 1.80957C16.1427 1.80957 16.4492 1.87054 16.7352 1.98899C17.0211 2.10744 17.281 2.28106 17.4998 2.49993C17.7187 2.7188 17.8923 2.97863 18.0108 3.2646C18.1292 3.55057 18.1902 3.85706 18.1902 4.16659C18.1902 4.47612 18.1292 4.78262 18.0108 5.06859C17.8923 5.35455 17.7187 5.61439 17.4998 5.83326L6.24984 17.0833L1.6665 18.3333L2.9165 13.7499L14.1665 2.49993Z"   stroke-linecap="round" stroke-linejoin="round"></path>
  </symbol>
  <symbol fill="none" xmlns="http://www.w3.org/2000/svg" viewBox="0 0 20 4" id="option-horizontal">
    <path d="M4 2C4 2.53043 3.78929 3.03914 3.41421 3.41421C3.03914 3.78929 2.53043 4 2 4C1.46957 4 0.960859 3.78929 0.585786 3.41421C0.210714 3.03914 0 2.53043 0 2C0 1.46957 0.210714 0.96086 0.585786 0.585787C0.960859 0.210714 1.46957 0 2 0C2.53043 0 3.03914 0.210714 3.41421 0.585787C3.78929 0.96086 4 1.46957 4 2ZM12 2C12 2.53043 11.7893 3.03914 11.4142 3.41421C11.0391 3.78929 10.5304 4 10 4C9.46957 4 8.96086 3.78929 8.58579 3.41421C8.21071 3.03914 8 2.53043 8 2C8 1.46957 8.21071 0.96086 8.58579 0.585787C8.96086 0.210714 9.46957 0 10 0C10.5304 0 11.0391 0.210714 11.4142 0.585787C11.7893 0.96086 12 1.46957 12 2ZM18 4C18.5304 4 19.0391 3.78929 19.4142 3.41421C19.7893 3.03914 20 2.53043 20 2C20 1.46957 19.7893 0.96086 19.4142 0.585787C19.0391 0.210714 18.5304 0 18 0C17.4696 0 16.9609 0.210714 16.5858 0.585787C16.2107 0.96086 16 1.46957 16 2C16 2.53043 16.2107 3.03914 16.5858 3.41421C16.9609 3.78929 17.4696 4 18 4Z"></path>
  </symbol>
  <symbol fill="none" xmlns="http://www.w3.org/2000/svg" viewBox="0 0 41 41" id="services">
    <path d="M33.696 12.1665H7.02938C5.18843 12.1665 3.69604 13.6589 3.69604 15.4998V32.1665C3.69604 34.0075 5.18843 35.4998 7.02938 35.4998H33.696C35.537 35.4998 37.0294 34.0075 37.0294 32.1665V15.4998C37.0294 13.6589 35.537 12.1665 33.696 12.1665Z"   stroke-linecap="round" stroke-linejoin="round"></path>
    <path d="M27.0294 35.5V8.83333C27.0294 7.94928 26.6782 7.10143 26.0531 6.47631C25.4279 5.85119 24.5801 5.5 23.696 5.5H17.0294C16.1453 5.5 15.2975 5.85119 14.6724 6.47631C14.0472 7.10143 13.696 7.94928 13.696 8.83333V35.5"   stroke-linecap="round" stroke-linejoin="round"></path>
  </symbol>
  <symbol fill="none" xmlns="http://www.w3.org/2000/svg" viewBox="0 0 12 13" id="phone">
    <g clip-path="url(#clip0_3018_43072)">
      <path d="M11.0002 8.96005V10.46C11.0008 10.5993 10.9723 10.7371 10.9165 10.8647C10.8607 10.9923 10.7789 11.1068 10.6762 11.201C10.5736 11.2951 10.4525 11.3668 10.3206 11.4114C10.1887 11.456 10.0489 11.4726 9.91021 11.46C8.37163 11.2929 6.89371 10.7671 5.59521 9.92505C4.38712 9.15738 3.36288 8.13313 2.59521 6.92505C1.7502 5.62065 1.22433 4.13555 1.06021 2.59005C1.04772 2.45178 1.06415 2.31243 1.10846 2.18086C1.15277 2.04929 1.224 1.92839 1.31759 1.82586C1.41119 1.72332 1.52511 1.6414 1.65211 1.58531C1.7791 1.52922 1.91638 1.50018 2.05521 1.50005H3.55521C3.79786 1.49766 4.03311 1.58359 4.21709 1.74181C4.40108 1.90004 4.52125 2.11977 4.55521 2.36005C4.61852 2.84008 4.73594 3.31141 4.90521 3.76505C4.97248 3.94401 4.98704 4.13851 4.94716 4.32549C4.90729 4.51247 4.81464 4.6841 4.68021 4.82005L4.04521 5.45505C4.75699 6.70682 5.79344 7.74327 7.04521 8.45505L7.68021 7.82005C7.81616 7.68562 7.98779 7.59297 8.17477 7.5531C8.36175 7.51322 8.55625 7.52778 8.73521 7.59505C9.18885 7.76432 9.66018 7.88174 10.1402 7.94505C10.3831 7.97931 10.6049 8.10165 10.7635 8.2888C10.922 8.47594 11.0063 8.71484 11.0002 8.96005Z"   stroke-linecap="round" stroke-linejoin="round"></path>
    </g>
    <defs>
      <clipPath id="clip0_3018_43072">
        <rect width="12" height="12" transform="translate(0 0.5)"></rect>
      </clipPath>
    </defs>
  </symbol>
  <symbol fill="none" xmlns="http://www.w3.org/2000/svg" viewBox="0 0 16 17" id="search">
    <path d="M7.33333 13.1667C10.2789 13.1667 12.6667 10.7789 12.6667 7.83333C12.6667 4.88781 10.2789 2.5 7.33333 2.5C4.38781 2.5 2 4.88781 2 7.83333C2 10.7789 4.38781 13.1667 7.33333 13.1667Z"   stroke-linecap="round" stroke-linejoin="round"></path>
    <path d="M14.0001 14.4996L11.1001 11.5996"   stroke-linecap="round" stroke-linejoin="round"></path>
  </symbol>
  <symbol fill="none" xmlns="http://www.w3.org/2000/svg" viewBox="0 0 16 17" id="success">
    <path fill-rule="evenodd" clip-rule="evenodd" d="M8 16.0793C10.1217 16.0793 12.1566 15.2364 13.6569 13.7361C15.1571 12.2358 16 10.201 16 8.07925C16 5.95752 15.1571 3.92269 13.6569 2.4224C12.1566 0.922109 10.1217 0.0792542 8 0.0792542C5.87827 0.0792542 3.84344 0.922109 2.34315 2.4224C0.842855 3.92269 0 5.95752 0 8.07925C0 10.201 0.842855 12.2358 2.34315 13.7361C3.84344 15.2364 5.87827 16.0793 8 16.0793ZM11.707 6.78625C11.8892 6.59765 11.99 6.34505 11.9877 6.08285C11.9854 5.82066 11.8802 5.56984 11.6948 5.38444C11.5094 5.19903 11.2586 5.09386 10.9964 5.09158C10.7342 5.0893 10.4816 5.1901 10.293 5.37225L7 8.66525L5.707 7.37225C5.5184 7.1901 5.2658 7.0893 5.0036 7.09158C4.7414 7.09386 4.49059 7.19903 4.30518 7.38444C4.11977 7.56984 4.0146 7.82066 4.01233 8.08285C4.01005 8.34505 4.11084 8.59765 4.293 8.78625L6.293 10.7863C6.48053 10.9737 6.73484 11.079 7 11.079C7.26516 11.079 7.51947 10.9737 7.707 10.7863L11.707 6.78625Z"></path>
  </symbol>
  <symbol fill="none" xmlns="http://www.w3.org/2000/svg" viewBox="0 0 16 16" id="settings">
    <g clip-path="url(#clip0_3019_75395)">
      <path d="M8 10C9.10457 10 10 9.10457 10 8C10 6.89543 9.10457 6 8 6C6.89543 6 6 6.89543 6 8C6 9.10457 6.89543 10 8 10Z" stroke-linecap="round" stroke-linejoin="round"></path>
      <path d="M12.9327 10.0003C12.8439 10.2014 12.8175 10.4245 12.8567 10.6407C12.8959 10.857 12.999 11.0565 13.1527 11.2137L13.1927 11.2537C13.3167 11.3775 13.415 11.5245 13.4821 11.6864C13.5492 11.8483 13.5837 12.0218 13.5837 12.197C13.5837 12.3722 13.5492 12.5457 13.4821 12.7076C13.415 12.8694 13.3167 13.0165 13.1927 13.1403C13.0689 13.2643 12.9218 13.3626 12.7599 13.4297C12.5981 13.4968 12.4246 13.5314 12.2493 13.5314C12.0741 13.5314 11.9006 13.4968 11.7388 13.4297C11.5769 13.3626 11.4298 13.2643 11.306 13.1403L11.266 13.1003C11.1089 12.9466 10.9093 12.8435 10.6931 12.8043C10.4768 12.7651 10.2538 12.7916 10.0527 12.8803C9.8555 12.9648 9.68734 13.1052 9.56889 13.284C9.45044 13.4629 9.38687 13.6725 9.38602 13.887V14.0003C9.38602 14.3539 9.24554 14.6931 8.99549 14.9431C8.74544 15.1932 8.4063 15.3337 8.05268 15.3337C7.69906 15.3337 7.35992 15.1932 7.10987 14.9431C6.85982 14.6931 6.71935 14.3539 6.71935 14.0003V13.9403C6.71419 13.7197 6.64276 13.5057 6.51436 13.3261C6.38595 13.1466 6.20651 13.0098 5.99935 12.9337C5.79827 12.8449 5.57522 12.8184 5.35896 12.8577C5.14269 12.8969 4.94313 13 4.78602 13.1537L4.74602 13.1937C4.62218 13.3176 4.47513 13.416 4.31327 13.4831C4.1514 13.5502 3.9779 13.5847 3.80268 13.5847C3.62746 13.5847 3.45396 13.5502 3.2921 13.4831C3.13023 13.416 2.98318 13.3176 2.85935 13.1937C2.73538 13.0698 2.63703 12.9228 2.56994 12.7609C2.50284 12.599 2.4683 12.4255 2.4683 12.2503C2.4683 12.0751 2.50284 11.9016 2.56994 11.7397C2.63703 11.5779 2.73538 11.4308 2.85935 11.307L2.89935 11.267C3.05304 11.1099 3.15614 10.9103 3.19535 10.6941C3.23456 10.4778 3.20809 10.2547 3.11935 10.0537C3.03484 9.85648 2.89452 9.68831 2.71566 9.56986C2.5368 9.45141 2.32721 9.38785 2.11268 9.38699H1.99935C1.64573 9.38699 1.30659 9.24652 1.05654 8.99647C0.806491 8.74642 0.666016 8.40728 0.666016 8.05366C0.666016 7.70004 0.806491 7.3609 1.05654 7.11085C1.30659 6.8608 1.64573 6.72033 1.99935 6.72033H2.05935C2.28001 6.71516 2.49402 6.64374 2.67355 6.51533C2.85308 6.38693 2.98983 6.20748 3.06602 6.00033C3.15476 5.79925 3.18123 5.5762 3.14202 5.35993C3.10281 5.14367 2.99971 4.94411 2.84602 4.78699L2.80602 4.74699C2.68205 4.62316 2.5837 4.47611 2.5166 4.31425C2.4495 4.15238 2.41497 3.97888 2.41497 3.80366C2.41497 3.62844 2.4495 3.45494 2.5166 3.29307C2.5837 3.13121 2.68205 2.98416 2.80602 2.86033C2.92985 2.73636 3.0769 2.63801 3.23876 2.57091C3.40063 2.50381 3.57413 2.46928 3.74935 2.46928C3.92457 2.46928 4.09807 2.50381 4.25994 2.57091C4.4218 2.63801 4.56885 2.73636 4.69268 2.86033L4.73268 2.90033C4.8898 3.05402 5.08936 3.15712 5.30562 3.19633C5.52189 3.23554 5.74494 3.20907 5.94602 3.12033H5.99935C6.19653 3.03582 6.36469 2.8955 6.48314 2.71664C6.60159 2.53778 6.66516 2.32818 6.66602 2.11366V2.00033C6.66602 1.6467 6.80649 1.30756 7.05654 1.05752C7.30659 0.807468 7.64573 0.666992 7.99935 0.666992C8.35297 0.666992 8.69211 0.807468 8.94216 1.05752C9.19221 1.30756 9.33268 1.6467 9.33268 2.00033V2.06033C9.33354 2.27485 9.3971 2.48444 9.51555 2.6633C9.634 2.84216 9.80217 2.98248 9.99935 3.06699C10.2004 3.15574 10.4235 3.18221 10.6397 3.143C10.856 3.10378 11.0556 3.00068 11.2127 2.84699L11.2527 2.80699C11.3765 2.68302 11.5236 2.58468 11.6854 2.51758C11.8473 2.45048 12.0208 2.41594 12.196 2.41594C12.3712 2.41594 12.5447 2.45048 12.7066 2.51758C12.8685 2.58468 13.0155 2.68302 13.1393 2.80699C13.2633 2.93082 13.3617 3.07787 13.4288 3.23974C13.4959 3.4016 13.5304 3.5751 13.5304 3.75033C13.5304 3.92555 13.4959 4.09905 13.4288 4.26091C13.3617 4.42278 13.2633 4.56983 13.1393 4.69366L13.0993 4.73366C12.9457 4.89078 12.8426 5.09034 12.8033 5.3066C12.7641 5.52286 12.7906 5.74591 12.8793 5.94699V6.00033C12.9639 6.1975 13.1042 6.36567 13.283 6.48412C13.4619 6.60257 13.6715 6.66614 13.886 6.66699H13.9993C14.353 6.66699 14.6921 6.80747 14.9422 7.05752C15.1922 7.30756 15.3327 7.6467 15.3327 8.00033C15.3327 8.35395 15.1922 8.69309 14.9422 8.94313C14.6921 9.19318 14.353 9.33366 13.9993 9.33366H13.9393C13.7248 9.33451 13.5152 9.39808 13.3364 9.51653C13.1575 9.63498 13.0172 9.80315 12.9327 10.0003V10.0003Z" stroke-linecap="round" stroke-linejoin="round"></path>
    </g>
    <defs>
      <clipPath id="clip0_3019_75395">
        <rect width="16" height="16"></rect>
      </clipPath>
    </defs>
  </symbol>
  <symbol fill="none" xmlns="http://www.w3.org/2000/svg" viewBox="0 0 25 24" id="user">
    <path d="M20.5 21V19C20.5 17.9391 20.0786 16.9217 19.3284 16.1716C18.5783 15.4214 17.5609 15 16.5 15H8.5C7.43913 15 6.42172 15.4214 5.67157 16.1716C4.92143 16.9217 4.5 17.9391 4.5 19V21"   stroke-linecap="round" stroke-linejoin="round"></path>
    <path d="M12.5 11C14.7091 11 16.5 9.20914 16.5 7C16.5 4.79086 14.7091 3 12.5 3C10.2909 3 8.5 4.79086 8.5 7C8.5 9.20914 10.2909 11 12.5 11Z"   stroke-linecap="round" stroke-linejoin="round"></path>
  </symbol>
  <symbol fill="none" xmlns="http://www.w3.org/2000/svg" viewBox="0 0 118 118" id="success_check">
    <path d="M35.9302 48.5067C34.3139 46.7434 31.522 46.5964 29.7588 48.2128C27.9955 49.8291 27.8486 52.6209 29.4649 54.3842L51.6527 78.4822C52.5343 79.3638 53.5629 79.9515 54.7384 79.9515C54.7384 79.9515 54.7384 79.9515 54.8853 79.9515C56.0608 79.9515 57.2363 79.5107 57.971 78.6291L114.102 22.6454C115.865 20.8822 115.865 18.0903 114.102 16.474C112.338 14.8577 109.547 14.7107 107.93 16.474L55.0322 69.225L35.9302 48.5067Z" fill="url(#paint0_linear)"></path>
    <path d="M113.073 54.5305C110.575 54.5305 108.665 56.4407 108.665 58.9387C108.665 86.2693 86.3305 108.604 58.9999 108.604C31.6693 108.604 9.33464 86.2693 9.33464 58.9387C9.33464 31.608 31.6693 9.27336 58.9999 9.27336C61.4979 9.27336 63.4081 7.36316 63.4081 4.8652C63.4081 2.36724 61.4979 0.457031 58.9999 0.457031C26.8203 0.457031 0.518311 26.7591 0.518311 58.9387C0.518311 91.1183 26.8203 117.42 58.9999 117.42C91.1795 117.42 117.482 91.1183 117.482 58.9387C117.482 56.4407 115.571 54.5305 113.073 54.5305Z" fill="url(#paint1_linear)"></path>
    <defs>
      <linearGradient id="paint0_linear" x1="66.5571" y1="95.6649" x2="66.6667" y2="35.9777" gradientUnits="userSpaceOnUse">
        <stop></stop>
        <stop offset="1"></stop>
      </linearGradient>
      <linearGradient id="paint1_linear" x1="51.8487" y1="145.807" x2="52.1148" y2="37.9816" gradientUnits="userSpaceOnUse">
        <stop></stop>
        <stop offset="1"></stop>
      </linearGradient>
    </defs>
  </symbol>
  <symbol fill="none" xmlns="http://www.w3.org/2000/svg" viewBox="0 0 16 16" id="voicemail">
    <path d="M3.6665 10.667C5.32336 10.667 6.6665 9.32385 6.6665 7.66699C6.6665 6.01014 5.32336 4.66699 3.6665 4.66699C2.00965 4.66699 0.666504 6.01014 0.666504 7.66699C0.666504 9.32385 2.00965 10.667 3.6665 10.667Z"   stroke-linecap="round" stroke-linejoin="round"></path>
    <path d="M12.3335 10.667C13.9904 10.667 15.3335 9.32385 15.3335 7.66699C15.3335 6.01014 13.9904 4.66699 12.3335 4.66699C10.6766 4.66699 9.3335 6.01014 9.3335 7.66699C9.3335 9.32385 10.6766 10.667 12.3335 10.667Z"   stroke-linecap="round" stroke-linejoin="round"></path>
    <path d="M3.6665 10.667H12.3332"   stroke-linecap="round" stroke-linejoin="round"></path>
  </symbol>
  <symbol fill="none" xmlns="http://www.w3.org/2000/svg" viewBox="0 0 16 15" id="warning">
    <path fill-rule="evenodd" clip-rule="evenodd" d="M6.25685 1.17826C7.02185 -0.181736 8.97885 -0.181736 9.74285 1.17826L15.3228 11.0983C16.0728 12.4323 15.1098 14.0783 13.5808 14.0783H2.41985C0.889848 14.0783 -0.0731517 12.4323 0.676848 11.0983L6.25685 1.17826ZM8.99985 11.0793C8.99985 11.3445 8.89449 11.5988 8.70695 11.7864C8.51942 11.9739 8.26506 12.0793 7.99985 12.0793C7.73463 12.0793 7.48028 11.9739 7.29274 11.7864C7.10521 11.5988 6.99985 11.3445 6.99985 11.0793C6.99985 10.814 7.10521 10.5597 7.29274 10.3722C7.48028 10.1846 7.73463 10.0793 7.99985 10.0793C8.26506 10.0793 8.51942 10.1846 8.70695 10.3722C8.89449 10.5597 8.99985 10.814 8.99985 11.0793ZM7.99985 3.07926C7.73463 3.07926 7.48028 3.18462 7.29274 3.37216C7.10521 3.55969 6.99985 3.81405 6.99985 4.07926V7.07926C6.99985 7.34448 7.10521 7.59883 7.29274 7.78637C7.48028 7.97391 7.73463 8.07926 7.99985 8.07926C8.26506 8.07926 8.51942 7.97391 8.70695 7.78637C8.89449 7.59883 8.99985 7.34448 8.99985 7.07926V4.07926C8.99985 3.81405 8.89449 3.55969 8.70695 3.37216C8.51942 3.18462 8.26506 3.07926 7.99985 3.07926Z"></path>
  </symbol>
  <symbol fill="none" xmlns="http://www.w3.org/2000/svg" viewBox="0 0 25 24" id="x-circle">
    <path d="M12.9844 22C18.5072 22 22.9844 17.5228 22.9844 12C22.9844 6.47715 18.5072 2 12.9844 2C7.46153 2 2.98438 6.47715 2.98438 12C2.98438 17.5228 7.46153 22 12.9844 22Z"   stroke-linecap="round" stroke-linejoin="round"></path>
    <path d="M15.9844 9L9.98438 15"   stroke-linecap="round" stroke-linejoin="round"></path>
    <path d="M9.98438 9L15.9844 15"   stroke-linecap="round" stroke-linejoin="round"></path>
  </symbol>
  <symbol fill="none" xmlns="http://www.w3.org/2000/svg" viewBox="0 0 20 20" id="option-vertical">
    <g clip-path="url(#clip0_3674_45121)">
      <path d="M9.99967 6.66732C10.9163 6.66732 11.6663 5.91732 11.6663 5.00065C11.6663 4.08398 10.9163 3.33398 9.99967 3.33398C9.08301 3.33398 8.33301 4.08398 8.33301 5.00065C8.33301 5.91732 9.08301 6.66732 9.99967 6.66732ZM9.99967 8.33398C9.08301 8.33398 8.33301 9.08398 8.33301 10.0007C8.33301 10.9173 9.08301 11.6673 9.99967 11.6673C10.9163 11.6673 11.6663 10.9173 11.6663 10.0007C11.6663 9.08398 10.9163 8.33398 9.99967 8.33398ZM9.99967 13.334C9.08301 13.334 8.33301 14.084 8.33301 15.0007C8.33301 15.9173 9.08301 16.6673 9.99967 16.6673C10.9163 16.6673 11.6663 15.9173 11.6663 15.0007C11.6663 14.084 10.9163 13.334 9.99967 13.334Z"></path>
    </g>
    <defs>
      <clipPath id="clip0_3019_75365">
        <rect width="16" height="16" ></rect>
      </clipPath>
    </defs>
  </symbol>
    <symbol fill="none" xmlns="http://www.w3.org/2000/svg" viewBox="0 0 16 16" id="eye-on">
    <path d="M0.666504 8.00033C0.666504 8.00033 3.33317 2.66699 7.99984 2.66699C12.6665 2.66699 15.3332 8.00033 15.3332 8.00033C15.3332 8.00033 12.6665 13.3337 7.99984 13.3337C3.33317 13.3337 0.666504 8.00033 0.666504 8.00033Z" stroke="inherit" stroke-width="1.33" stroke-linecap="round" stroke-linejoin="round"></path>
    <path d="M8 10C9.10457 10 10 9.10457 10 8C10 6.89543 9.10457 6 8 6C6.89543 6 6 6.89543 6 8C6 9.10457 6.89543 10 8 10Z" stroke-width="1.33" stroke-linecap="round" stroke-linejoin="round"></path>
  </symbol>
  <symbol fill="none" xmlns="http://www.w3.org/2000/svg" viewBox="0 0 16 16" id="ballon-chat">
    <path d="M14 7.66669C14.0023 8.5466 13.7967 9.41461 13.4 10.2C12.9296 11.1412 12.2065 11.9328 11.3116 12.4862C10.4168 13.0396 9.3855 13.3329 8.33333 13.3334C7.45342 13.3356 6.58541 13.1301 5.8 12.7334L2 14L3.26667 10.2C2.86995 9.41461 2.66437 8.5466 2.66667 7.66669C2.66707 6.61452 2.96041 5.58325 3.51381 4.68839C4.06722 3.79352 4.85884 3.0704 5.8 2.60002C6.58541 2.20331 7.45342 1.99772 8.33333 2.00002H8.66667C10.0562 2.07668 11.3687 2.66319 12.3528 3.64726C13.3368 4.63132 13.9233 5.94379 14 7.33335V7.66669Z"    stroke-linecap="round" stroke-linejoin="round"></path>
  </symbol>
  <symbol fill="none" xmlns="http://www.w3.org/2000/svg" viewBox="0 0 16 16" id="folder">
    <path d="M14.6668 12.6667C14.6668 13.0203 14.5264 13.3594 14.2763 13.6095C14.0263 13.8595 13.6871 14 13.3335 14H2.66683C2.31321 14 1.97407 13.8595 1.72402 13.6095C1.47397 13.3594 1.3335 13.0203 1.3335 12.6667V3.33333C1.3335 2.97971 1.47397 2.64057 1.72402 2.39052C1.97407 2.14048 2.31321 2 2.66683 2H6.00016L7.3335 4H13.3335C13.6871 4 14.0263 4.14048 14.2763 4.39052C14.5264 4.64057 14.6668 4.97971 14.6668 5.33333V12.6667Z" stroke="black" stroke-width="1.33" stroke-linecap="round" stroke-linejoin="round"></path>
    <path d="M6 9.33301H10" stroke-width="1.33" stroke-linecap="round" stroke-linejoin="round"></path>
  </symbol>
  <symbol fill="none" xmlns="http://www.w3.org/2000/svg" viewBox="0 0 12 13" id="phone">
    <g clip-path="url(#clip0_3018_43072)">
      <path d="M11.0002 8.96005V10.46C11.0008 10.5993 10.9723 10.7371 10.9165 10.8647C10.8607 10.9923 10.7789 11.1068 10.6762 11.201C10.5736 11.2951 10.4525 11.3668 10.3206 11.4114C10.1887 11.456 10.0489 11.4726 9.91021 11.46C8.37163 11.2929 6.89371 10.7671 5.59521 9.92505C4.38712 9.15738 3.36288 8.13313 2.59521 6.92505C1.7502 5.62065 1.22433 4.13555 1.06021 2.59005C1.04772 2.45178 1.06415 2.31243 1.10846 2.18086C1.15277 2.04929 1.224 1.92839 1.31759 1.82586C1.41119 1.72332 1.52511 1.6414 1.65211 1.58531C1.7791 1.52922 1.91638 1.50018 2.05521 1.50005H3.55521C3.79786 1.49766 4.03311 1.58359 4.21709 1.74181C4.40108 1.90004 4.52125 2.11977 4.55521 2.36005C4.61852 2.84008 4.73594 3.31141 4.90521 3.76505C4.97248 3.94401 4.98704 4.13851 4.94716 4.32549C4.90729 4.51247 4.81464 4.6841 4.68021 4.82005L4.04521 5.45505C4.75699 6.70682 5.79344 7.74327 7.04521 8.45505L7.68021 7.82005C7.81616 7.68562 7.98779 7.59297 8.17477 7.5531C8.36175 7.51322 8.55625 7.52778 8.73521 7.59505C9.18885 7.76432 9.66018 7.88174 10.1402 7.94505C10.3831 7.97931 10.6049 8.10165 10.7635 8.2888C10.922 8.47594 11.0063 8.71484 11.0002 8.96005Z"   stroke-linecap="round" stroke-linejoin="round"></path>
    </g>
    <defs>
      <clipPath id="clip0_3018_43072">
        <rect width="12" height="12"  transform="translate(0 0.5)"></rect>
      </clipPath>
    </defs>
  </symbol>
  <symbol fill="none" xmlns="http://www.w3.org/2000/svg" viewBox="0 0 12 13" id="clock">
    <path d="M6 4.16667V6.5L7.75 8.25L6 4.16667ZM11.25 6.5C11.25 7.18944 11.1142 7.87213 10.8504 8.50909C10.5865 9.14605 10.1998 9.7248 9.71231 10.2123C9.2248 10.6998 8.64605 11.0865 8.00909 11.3504C7.37213 11.6142 6.68944 11.75 6 11.75C5.31056 11.75 4.62787 11.6142 3.99091 11.3504C3.35395 11.0865 2.7752 10.6998 2.28769 10.2123C1.80018 9.7248 1.41347 9.14605 1.14963 8.50909C0.885795 7.87213 0.75 7.18944 0.75 6.5C0.75 5.10761 1.30312 3.77226 2.28769 2.78769C3.27226 1.80312 4.60761 1.25 6 1.25C7.39239 1.25 8.72774 1.80312 9.71231 2.78769C10.6969 3.77226 11.25 5.10761 11.25 6.5Z"   stroke-linecap="round" stroke-linejoin="round"></path>
  </symbol>
  <symbol fill="none" xmlns="http://www.w3.org/2000/svg" viewBox="0 0 30 29" id="file">
    <path d="M17.4032 2.48438H7.7908C7.15345 2.48438 6.54222 2.73756 6.09155 3.18823C5.64088 3.6389 5.3877 4.25013 5.3877 4.88748V24.1123C5.3877 24.7496 5.64088 25.3609 6.09155 25.8115C6.54222 26.2622 7.15345 26.5154 7.7908 26.5154H22.2094C22.8467 26.5154 23.458 26.2622 23.9086 25.8115C24.3593 25.3609 24.6125 24.7496 24.6125 24.1123V9.69368L17.4032 2.48438Z"   stroke-linecap="round" stroke-linejoin="round"></path>
    <path d="M17.4033 2.48438V9.69368H24.6126"   stroke-linecap="round" stroke-linejoin="round"></path>
    <path d="M19.8063 15.7031H10.1938"   stroke-linecap="round" stroke-linejoin="round"></path>
    <path d="M19.8063 20.5078H10.1938"   stroke-linecap="round" stroke-linejoin="round"></path>
    <path d="M12.5969 10.8945H11.3954H10.1938"   stroke-linecap="round" stroke-linejoin="round"></path>
  </symbol>
  <symbol fill="none" xmlns="http://www.w3.org/2000/svg" viewBox="0 0 16 16" id="voicemail">
    <path d="M3.6665 10.667C5.32336 10.667 6.6665 9.32385 6.6665 7.66699C6.6665 6.01014 5.32336 4.66699 3.6665 4.66699C2.00965 4.66699 0.666504 6.01014 0.666504 7.66699C0.666504 9.32385 2.00965 10.667 3.6665 10.667Z" stroke="black" stroke-width="1.33" stroke-linecap="round" stroke-linejoin="round"></path>
    <path d="M12.3335 10.667C13.9904 10.667 15.3335 9.32385 15.3335 7.66699C15.3335 6.01014 13.9904 4.66699 12.3335 4.66699C10.6766 4.66699 9.3335 6.01014 9.3335 7.66699C9.3335 9.32385 10.6766 10.667 12.3335 10.667Z" stroke-width="1.33" stroke-linecap="round" stroke-linejoin="round"></path>
    <path d="M3.6665 10.667H12.3332"   stroke-linecap="round" stroke-linejoin="round"></path>
  </symbol>
  <symbol fill="none" xmlns="http://www.w3.org/2000/svg" viewBox="0 0 20 4" id="options">
    <path d="M4 2C4 2.53043 3.78929 3.03914 3.41421 3.41421C3.03914 3.78929 2.53043 4 2 4C1.46957 4 0.960859 3.78929 0.585786 3.41421C0.210714 3.03914 0 2.53043 0 2C0 1.46957 0.210714 0.96086 0.585786 0.585787C0.960859 0.210714 1.46957 0 2 0C2.53043 0 3.03914 0.210714 3.41421 0.585787C3.78929 0.96086 4 1.46957 4 2ZM12 2C12 2.53043 11.7893 3.03914 11.4142 3.41421C11.0391 3.78929 10.5304 4 10 4C9.46957 4 8.96086 3.78929 8.58579 3.41421C8.21071 3.03914 8 2.53043 8 2C8 1.46957 8.21071 0.96086 8.58579 0.585787C8.96086 0.210714 9.46957 0 10 0C10.5304 0 11.0391 0.210714 11.4142 0.585787C11.7893 0.96086 12 1.46957 12 2ZM18 4C18.5304 4 19.0391 3.78929 19.4142 3.41421C19.7893 3.03914 20 2.53043 20 2C20 1.46957 19.7893 0.96086 19.4142 0.585787C19.0391 0.210714 18.5304 0 18 0C17.4696 0 16.9609 0.210714 16.5858 0.585787C16.2107 0.96086 16 1.46957 16 2C16 2.53043 16.2107 3.03914 16.5858 3.41421C16.9609 3.78929 17.4696 4 18 4Z" fill="#343A40"></path>
  </symbol>
    <symbol fill="none" xmlns="http://www.w3.org/2000/svg" viewBox="0 0 18 18" id="map-pin">
    <path d="M15.75 7.5C15.75 12.75 9 17.25 9 17.25C9 17.25 2.25 12.75 2.25 7.5C2.25 5.70979 2.96116 3.9929 4.22703 2.72703C5.4929 1.46116 7.20979 0.75 9 0.75C10.7902 0.75 12.5071 1.46116 13.773 2.72703C15.0388 3.9929 15.75 5.70979 15.75 7.5Z"   stroke-linecap="round" stroke-linejoin="round"></path>
    <path d="M9 9.75C10.2426 9.75 11.25 8.74264 11.25 7.5C11.25 6.25736 10.2426 5.25 9 5.25C7.75736 5.25 6.75 6.25736 6.75 7.5C6.75 8.74264 7.75736 9.75 9 9.75Z"   stroke-linecap="round" stroke-linejoin="round"></path>
  </symbol>
  <symbol fill="none" xmlns="http://www.w3.org/2000/svg" viewBox="0 0 20 20" id="pen">
    <path d="M14.1665 2.49993C14.3854 2.28106 14.6452 2.10744 14.9312 1.98899C15.2171 1.87054 15.5236 1.80957 15.8332 1.80957C16.1427 1.80957 16.4492 1.87054 16.7352 1.98899C17.0211 2.10744 17.281 2.28106 17.4998 2.49993C17.7187 2.7188 17.8923 2.97863 18.0108 3.2646C18.1292 3.55057 18.1902 3.85706 18.1902 4.16659C18.1902 4.47612 18.1292 4.78262 18.0108 5.06859C17.8923 5.35455 17.7187 5.61439 17.4998 5.83326L6.24984 17.0833L1.6665 18.3333L2.9165 13.7499L14.1665 2.49993Z"   stroke-linecap="round" stroke-linejoin="round"></path>
  </symbol>
  <symbol fill="none" xmlns="http://www.w3.org/2000/svg" viewBox="0 0 18 18" id="book-opened">
    <path d="M1.5 2.25H6C6.79565 2.25 7.55871 2.56607 8.12132 3.12868C8.68393 3.69129 9 4.45435 9 5.25V15.75C9 15.1533 8.76295 14.581 8.34099 14.159C7.91903 13.7371 7.34674 13.5 6.75 13.5H1.5V2.25Z"   stroke-linecap="round" stroke-linejoin="round"></path>
    <path d="M16.5 2.25H12C11.2044 2.25 10.4413 2.56607 9.87868 3.12868C9.31607 3.69129 9 4.45435 9 5.25V15.75C9 15.1533 9.23705 14.581 9.65901 14.159C10.081 13.7371 10.6533 13.5 11.25 13.5H16.5V2.25Z"   stroke-linecap="round" stroke-linejoin="round"></path>
  </symbol>
  <symbol fill="none" xmlns="http://www.w3.org/2000/svg" viewBox="0 0 20 20" id="bin">
    <path d="M2.5 5H4.16667H17.5"   stroke-linecap="round" stroke-linejoin="round"></path>
    <path d="M6.6665 5.00033V3.33366C6.6665 2.89163 6.8421 2.46771 7.15466 2.15515C7.46722 1.84259 7.89114 1.66699 8.33317 1.66699H11.6665C12.1085 1.66699 12.5325 1.84259 12.845 2.15515C13.1576 2.46771 13.3332 2.89163 13.3332 3.33366V5.00033M15.8332 5.00033V16.667C15.8332 17.109 15.6576 17.5329 15.345 17.8455C15.0325 18.1581 14.6085 18.3337 14.1665 18.3337H5.83317C5.39114 18.3337 4.96722 18.1581 4.65466 17.8455C4.3421 17.5329 4.1665 17.109 4.1665 16.667V5.00033H15.8332Z"   stroke-linecap="round" stroke-linejoin="round"></path>
    <path d="M8.3335 9.16699V14.167"   stroke-linecap="round" stroke-linejoin="round"></path>
    <path d="M11.6665 9.16699V14.167"   stroke-linecap="round" stroke-linejoin="round"></path>
  </symbol>
  <symbol fill="none" xmlns="http://www.w3.org/2000/svg" viewBox="0 0 18 18" id="calendar">
    <path d="M14.25 3H3.75C2.92157 3 2.25 3.67157 2.25 4.5V15C2.25 15.8284 2.92157 16.5 3.75 16.5H14.25C15.0784 16.5 15.75 15.8284 15.75 15V4.5C15.75 3.67157 15.0784 3 14.25 3Z"   stroke-linecap="round" stroke-linejoin="round"></path>
    <path d="M12 1.5V4.5"   stroke-linecap="round" stroke-linejoin="round"></path>
    <path d="M6 1.5V4.5"   stroke-linecap="round" stroke-linejoin="round"></path>
    <path d="M2.25 7.5H15.75"   stroke-linecap="round" stroke-linejoin="round"></path>
  </symbol>
   <symbol fill="none" xmlns="http://www.w3.org/2000/svg" viewBox="0 0 17 17" id="camera">
    <g clip-path="url(#clip0_3018_43031)">
      <path d="M15.7477 13.3962C15.7477 13.7498 15.6072 14.0889 15.3572 14.339C15.1071 14.589 14.768 14.7295 14.4144 14.7295H2.41439C2.06077 14.7295 1.72163 14.589 1.47158 14.339C1.22153 14.0889 1.08105 13.7498 1.08105 13.3962V6.06283C1.08105 5.7092 1.22153 5.37006 1.47158 5.12002C1.72163 4.86997 2.06077 4.72949 2.41439 4.72949H5.08105L6.41439 2.72949H10.4144L11.7477 4.72949H14.4144C14.768 4.72949 15.1071 4.86997 15.3572 5.12002C15.6072 5.37006 15.7477 5.7092 15.7477 6.06283V13.3962Z" stroke-width="0.551203" stroke-linecap="round" stroke-linejoin="round"></path>
      <path d="M8.41471 12.0628C9.88747 12.0628 11.0814 10.8689 11.0814 9.39616C11.0814 7.9234 9.88747 6.72949 8.41471 6.72949C6.94195 6.72949 5.74805 7.9234 5.74805 9.39616C5.74805 10.8689 6.94195 12.0628 8.41471 12.0628Z" stroke-width="0.551203" stroke-linecap="round" stroke-linejoin="round"></path>
    </g>
    <defs>
      <clipPath id="clip0_3018_43031">
        <rect width="16" height="16"  transform="translate(0.414551 0.729492)"></rect>
      </clipPath>
    </defs>
  </symbol>
  <symbol fill="none" xmlns="http://www.w3.org/2000/svg" viewBox="0 0 11 6" id="caret-up">
    <path d="M0.233373 4.44844L4.83364 0.213143C4.98698 0.0719671 5.14032 0.00137854 5.37033 0.00137854C5.60035 0.00137854 5.75369 0.0719671 5.90703 0.213143L10.5073 4.44844C10.814 4.73079 10.814 5.15432 10.5073 5.43667C10.2006 5.71903 9.74058 5.71903 9.4339 5.43667L5.37033 1.6955L1.30677 5.43667C1.00008 5.71903 0.540057 5.71903 0.233373 5.43667C-0.0733109 5.15432 -0.0733109 4.73079 0.233373 4.44844Z" fill="#8390A0"></path>
  </symbol>
  <symbol fill="none" xmlns="http://www.w3.org/2000/svg" viewBox="0 0 11 6" id="caret-down">
    <path d="M10.5039 1.2L5.90367 5.43529C5.75033 5.57647 5.59699 5.64706 5.36697 5.64706C5.13696 5.64706 4.98362 5.57647 4.83028 5.43529L0.230013 1.2C-0.076671 0.917647 -0.076671 0.494118 0.230013 0.211765C0.536697 -0.0705882 0.996724 -0.0705882 1.30341 0.211765L5.36697 3.95294L9.43054 0.211765C9.73722 -0.0705882 10.1972 -0.0705882 10.5039 0.211765C10.8106 0.494118 10.8106 0.917647 10.5039 1.2Z" fill="#8390A0"></path>
  </symbol>
  <symbol fill="none" xmlns="http://www.w3.org/2000/svg" viewBox="0 0 25 24" id="x-circle">
    <path d="M12.9844 22C18.5072 22 22.9844 17.5228 22.9844 12C22.9844 6.47715 18.5072 2 12.9844 2C7.46153 2 2.98438 6.47715 2.98438 12C2.98438 17.5228 7.46153 22 12.9844 22Z"     stroke-linecap="round" stroke-linejoin="round"></path>
    <path d="M15.9844 9L9.98438 15"    stroke-linecap="round" stroke-linejoin="round"></path>
    <path d="M9.98438 9L15.9844 15"    stroke-linecap="round" stroke-linejoin="round"></path>
  </symbol>
  <symbol fill="none" xmlns="http://www.w3.org/2000/svg" viewBox="0 0 12 12" id="check-circle">
    <g clip-path="url(#clip0_3018_43058)">
      <path d="M6 11C8.76142 11 11 8.76142 11 6C11 3.23858 8.76142 1 6 1C3.23858 1 1 3.23858 1 6C1 8.76142 3.23858 11 6 11Z"   stroke-linecap="round" stroke-linejoin="round"></path>
    </g>
    <path d="M8 4.5L5.25 7.25L4 6"   stroke-linecap="round" stroke-linejoin="round"></path>
    <defs>
      <clipPath id="clip0_3018_43058">
        <rect width="12" height="12" ></rect>
      </clipPath>
    </defs>
  </symbol>
    <symbol fill="none" xmlns="http://www.w3.org/2000/svg" viewBox="0 0 9 12" id="caret-right"  > 
    <path d="M0.839844 1.41L5.41984 6L0.839844 10.59L2.24984 12L8.24984 6L2.24984 0L0.839844 1.41Z"></path>
  </symbol>
  <symbol fill="none" xmlns="http://www.w3.org/2000/svg" viewBox="0 0 9 12" id="caret-left"  >
    <path d="M8.16016 1.41L3.58016 6L8.16016 10.59L6.75016 12L0.750156 6L6.75016 0L8.16016 1.41Z"></path>
  </symbol>
    <symbol fill="none" xmlns="http://www.w3.org/2000/svg" viewBox="0 0 16 16" id="save">
    <path d="M12.6667 14H3.33333C2.97971 14 2.64057 13.8595 2.39052 13.6095C2.14048 13.3594 2 13.0203 2 12.6667V3.33333C2 2.97971 2.14048 2.64057 2.39052 2.39052C2.64057 2.14048 2.97971 2 3.33333 2H10.6667L14 5.33333V12.6667C14 13.0203 13.8595 13.3594 13.6095 13.6095C13.3594 13.8595 13.0203 14 12.6667 14Z" stroke="black" stroke-width="1.33" stroke-linecap="round" stroke-linejoin="round"></path>
    <path d="M11.3332 14.0003V8.66699H4.6665V14.0003" stroke-width="1.33" stroke-linecap="round" stroke-linejoin="round"></path>
    <path d="M4.6665 2V5.33333H9.99984" stroke-width="1.33" stroke-linecap="round" stroke-linejoin="round"></path>
  </symbol>
  <symbol fill="none" xmlns="http://www.w3.org/2000/svg" viewBox="0 0 16 16" id="arrow-up-left">
    <path d="M5.99984 9.33366L2.6665 6.00033L5.99984 2.66699" stroke="black" stroke-width="1.33" stroke-linecap="round" stroke-linejoin="round"></path>
    <path d="M13.3332 13.3333V8.66667C13.3332 7.95942 13.0522 7.28115 12.5521 6.78105C12.052 6.28095 11.3737 6 10.6665 6H2.6665" stroke-width="1.33" stroke-linecap="round" stroke-linejoin="round"></path>
  </symbol>
  <symbol fill="none" xmlns="http://www.w3.org/2000/svg" viewBox="0 0 16 16" id="copy">
    <g clip-path="url(#clip0_3018_52841)">
      <path d="M13.3333 6H7.33333C6.59695 6 6 6.59695 6 7.33333V13.3333C6 14.0697 6.59695 14.6667 7.33333 14.6667H13.3333C14.0697 14.6667 14.6667 14.0697 14.6667 13.3333V7.33333C14.6667 6.59695 14.0697 6 13.3333 6Z" stroke="black" stroke-width="1.33" stroke-linecap="round" stroke-linejoin="round"></path>
      <path d="M3.3335 9.99967H2.66683C2.31321 9.99967 1.97407 9.8592 1.72402 9.60915C1.47397 9.3591 1.3335 9.01996 1.3335 8.66634V2.66634C1.3335 2.31272 1.47397 1.97358 1.72402 1.72353C1.97407 1.47348 2.31321 1.33301 2.66683 1.33301H8.66683C9.02045 1.33301 9.35959 1.47348 9.60964 1.72353C9.85969 1.97358 10.0002 2.31272 10.0002 2.66634V3.33301" stroke-width="1.33" stroke-linecap="round" stroke-linejoin="round"></path>
    </g>
    <defs>
      <clipPath id="clip0_3018_52841">
        <rect width="16" height="16" fill="white"></rect>
      </clipPath>
    </defs>
  </symbol>
  <symbol fill="none" xmlns="http://www.w3.org/2000/svg" viewBox="0 0 24 24" id="arrow-circle-left">
    <path d="M12 22C17.5228 22 22 17.5228 22 12C22 6.47715 17.5228 2 12 2C6.47715 2 2 6.47715 2 12C2 17.5228 6.47715 22 12 22Z"  stroke-linecap="round" stroke-linejoin="round"></path>
    <path d="M12 8L8 12L12 16"  stroke-linecap="round" stroke-linejoin="round"></path>
    <path d="M16 12H8"  stroke-linecap="round" stroke-linejoin="round"></path>
  </symbol>
  <symbol fill="none" xmlns="http://www.w3.org/2000/svg" viewBox="0 0 24 24" id="arrow-circle-right">
    <path d="M12 22C17.5228 22 22 17.5228 22 12C22 6.47715 17.5228 2 12 2C6.47715 2 2 6.47715 2 12C2 17.5228 6.47715 22 12 22Z"  stroke-linecap="round" stroke-linejoin="round"></path>
    <path d="M12 16L16 12L12 8"  stroke-linecap="round" stroke-linejoin="round"></path>
    <path d="M8 12H16"  stroke-linecap="round" stroke-linejoin="round"></path>
  </symbol>
  <symbol fill="none" xmlns="http://www.w3.org/2000/svg" viewBox="0 0 40 40" id="briefcase">
    <path d="M33.334 11.667H6.66732C4.82637 11.667 3.33398 13.1594 3.33398 15.0003V31.667C3.33398 33.5079 4.82637 35.0003 6.66732 35.0003H33.334C35.1749 35.0003 36.6673 33.5079 36.6673 31.667V15.0003C36.6673 13.1594 35.1749 11.667 33.334 11.667Z"    stroke-linecap="round" stroke-linejoin="round"></path>
    <path d="M26.6673 35V8.33333C26.6673 7.44928 26.3161 6.60143 25.691 5.97631C25.0659 5.35119 24.218 5 23.334 5H16.6673C15.7833 5 14.9354 5.35119 14.3103 5.97631C13.6852 6.60143 13.334 7.44928 13.334 8.33333V35"    stroke-linecap="round" stroke-linejoin="round"></path>
  </symbol>
  <symbol fill="none" xmlns="http://www.w3.org/2000/svg" viewBox="0 0 40 40" id="bag">
    <path d="M10 3.33301L5 9.99967V33.333C5 34.2171 5.35119 35.0649 5.97631 35.69C6.60143 36.3152 7.44928 36.6663 8.33333 36.6663H31.6667C32.5507 36.6663 33.3986 36.3152 34.0237 35.69C34.6488 35.0649 35 34.2171 35 33.333V9.99967L30 3.33301H10Z"    stroke-linecap="round" stroke-linejoin="round"></path>
    <path d="M5 10H35"    stroke-linecap="round" stroke-linejoin="round"></path>
    <path d="M26.6673 16.667C26.6673 18.4351 25.9649 20.1308 24.7147 21.381C23.4645 22.6313 21.7688 23.3337 20.0007 23.3337C18.2325 23.3337 16.5368 22.6313 15.2866 21.381C14.0364 20.1308 13.334 18.4351 13.334 16.667"    stroke-linecap="round" stroke-linejoin="round"></path>
  </symbol>
    <symbol fill="none" xmlns="http://www.w3.org/2000/svg" viewBox="0 0 12 12" id="check">
    <path d="M10 3L4.5 8.5L2 6"   stroke-linecap="round" stroke-linejoin="round"></path>
  </symbol>
  <symbol fill="none" xmlns="http://www.w3.org/2000/svg" viewBox="6 6 12 12" id="cancel">
    <path d="M15 9L9 15"   stroke-linecap="round" stroke-linejoin="round"></path>
    <path d="M9 9L15 15"   stroke-linecap="round" stroke-linejoin="round"></path>
  </symbol>
</svg>