<svg width="24" height="24" viewBox="0 0 24 24" fill="none" xmlns="http://www.w3.org/2000/svg">
<path d="M15 11.25L16.5 12.75L17.25 12V8.758L19.5264 8.14803C20.019 8.01653 20.4847 7.75779 20.8712 7.37133C22.0428 6.19976 22.0428 4.30027 20.8712 3.1287C19.6996 1.95712 17.8001 1.95712 16.6286 3.12869C16.2421 3.51511 15.9832 3.98071 15.8517 4.47326L15.2416 6.75H12L11.25 7.5L12.75 9.00001M15 11.25L6.53033 19.7197C6.19077 20.0592 5.73022 20.25 5.25 20.25C4.76978 20.25 4.30924 20.4408 3.96967 20.7803L3 21.75L2.25 21L3.21967 20.0303C3.55923 19.6908 3.75 19.2302 3.75 18.75C3.75 18.2698 3.94077 17.8092 4.28033 17.4697L12.75 9.00001M15 11.25L12.75 9.00001" stroke="#0F172A" stroke-width="1.5" stroke-linecap="round" stroke-linejoin="round"/>
</svg>
