<svg width="24" height="24" viewBox="0 0 24 24" fill="none" xmlns="http://www.w3.org/2000/svg">
<path d="M7.84798 8.25007L9.38455 9.13721M7.84798 8.25007C7.01955 9.68494 5.18513 10.1765 3.75026 9.34809C2.31538 8.51966 1.82375 6.68489 2.65218 5.25001C3.48061 3.81513 5.31538 3.32351 6.75026 4.15194C8.18513 4.98036 8.67641 6.81519 7.84798 8.25007ZM9.38455 9.13721C10.0431 9.51742 10.4539 10.2153 10.4667 10.9756C10.4726 11.3272 10.5208 11.6706 10.6071 12.0001M9.38455 9.13721L11.4609 10.336M7.84798 15.7501L9.38455 14.863M7.84798 15.7501C8.67641 17.185 8.18513 19.0197 6.75026 19.8481C5.31538 20.6765 3.48061 20.1849 2.65218 18.75C1.82375 17.3151 2.31538 15.4804 3.75026 14.6519C5.18513 13.8235 7.01955 14.3153 7.84798 15.7501ZM9.38455 14.863C10.0431 14.4828 10.4539 13.7849 10.4667 13.0246C10.4726 12.673 10.5208 12.3296 10.6071 12.0001M9.38455 14.863L11.4609 13.6642M11.4609 10.336C11.9883 9.699 12.6992 9.21096 13.5295 8.95702L18.8542 7.32855C19.6607 7.08189 20.5203 7.06684 21.335 7.28513L22.1374 7.50014L14.3432 12.0001M11.4609 10.336C11.0621 10.8178 10.7682 11.3848 10.6071 12.0001M14.3432 12.0001L22.1374 16.5001L21.335 16.7151C20.5203 16.9334 19.6607 16.9183 18.8542 16.6717L13.5295 15.0432C12.6992 14.7892 11.9883 14.3012 11.4609 13.6642M14.3432 12.0001L11.4609 13.6642" stroke="#0F172A" stroke-width="1.5" stroke-linecap="round" stroke-linejoin="round"/>
</svg>
